<svg xmlns="http://www.w3.org/2000/svg" viewBox="0 0 83.42 83.42"><defs><style>.cls-1{fill:#fff;}.cls-2{fill:#f5d492;}</style></defs><title>10_1</title><g id="Layer_2" data-name="Layer 2"><g id="Layer_2-2" data-name="Layer 2"><path class="cls-1" d="M81.92,83.42H1.5A1.5,1.5,0,0,1,0,81.92V1.5A1.5,1.5,0,0,1,1.5,0H81.92a1.5,1.5,0,0,1,1.5,1.5V81.92A1.5,1.5,0,0,1,81.92,83.42ZM3,80.42H80.42V3H3Z"/><path class="cls-2" d="M73.62,30.3h-20a1.5,1.5,0,0,0-1.5,1.5v20a1.5,1.5,0,0,0,1.5,1.5h20a1.5,1.5,0,0,0,1.5-1.5v-20A1.5,1.5,0,0,0,73.62,30.3ZM66,40l6.08-6.08v3.67l-.85.85L59.39,50.3H55.72Zm6.08.09v3.67L65.56,50.3H61.89l5.61-5.62Zm-17,4.67L66.56,33.3h3.67L55.12,48.41Zm0-6.17,5.27-5.27h3.67l-8.94,8.94Zm0-5.27H57.9l-2.78,2.78Zm12.93,17,4.07-4.07V49.9l-.4.4Z"/></g></g></svg>