<svg xmlns="http://www.w3.org/2000/svg" viewBox="0 0 83.42 83.42"><defs><style>.cls-1{fill:#fff;}.cls-2{fill:#f5d492;}</style></defs><title>10_2</title><g id="Layer_2" data-name="Layer 2"><g id="Layer_2-2" data-name="Layer 2"><path class="cls-1" d="M81.92,83.42H1.5A1.5,1.5,0,0,1,0,81.92V1.5A1.5,1.5,0,0,1,1.5,0H81.92a1.5,1.5,0,0,1,1.5,1.5V81.92A1.5,1.5,0,0,1,81.92,83.42ZM3,80.42H80.42V3H3Z"/><path class="cls-2" d="M56.17,42.3H27.26a1.5,1.5,0,0,0-1.5,1.5V72.71a1.5,1.5,0,0,0,1.5,1.5H56.17a1.5,1.5,0,0,0,1.5-1.5V43.8A1.5,1.5,0,0,0,56.17,42.3Zm-21.11,3h3.55l-9.85,9.84V51.6Zm6,0h3.55L28.76,61.16V57.61Zm6,0h3.55L28.76,67.18V63.63Zm-14.5,0-3.83,3.83V45.3ZM28.76,69.64,53.11,45.3h1.56v1.56L30.32,71.21H28.76Zm19.61,1.57H44.82l9.85-9.85V64.9Zm-6,0H38.8L54.67,55.34v3.55Zm-6,0H32.79L54.67,49.33v3.54Zm14.5,0,3.84-3.84v3.84Z"/></g></g></svg>