<svg xmlns="http://www.w3.org/2000/svg" viewBox="0 0 83.42 83.42"><defs><style>.cls-1{fill:#fff;}.cls-2{fill:#f5d492;}</style></defs><title>10_3</title><g id="Layer_2" data-name="Layer 2"><g id="Layer_2-2" data-name="Layer 2"><path class="cls-1" d="M81.92,83.42H1.5A1.5,1.5,0,0,1,0,81.92V1.5A1.5,1.5,0,0,1,1.5,0H81.92a1.5,1.5,0,0,1,1.5,1.5V81.92A1.5,1.5,0,0,1,81.92,83.42ZM3,80.42H80.42V3H3Z"/><path class="cls-2" d="M60,14.75H9.07a1.5,1.5,0,0,0-1.5,1.5V67.18a1.5,1.5,0,0,0,1.5,1.5H60a1.5,1.5,0,0,0,1.5-1.5V16.25A1.5,1.5,0,0,0,60,14.75ZM49.23,65.68H41L58.5,48.21v8.2Zm-11.66,0h-8.2L58.5,36.55v8.2Zm-11.66,0h-8.2L58.5,24.89v8.2ZM19.83,17.75H28L10.57,35.22V27Zm11.66,0h8.2L10.57,46.87v-8.2Zm11.66,0h8.2L10.57,58.53v-8.2Zm-26.77,0-5.81,5.81V17.75ZM10.57,62,54.81,17.75H58.5v3.69L14.26,65.68H10.57Zm42.12,3.69,5.81-5.81v5.81Z"/></g></g></svg>