<svg xmlns="http://www.w3.org/2000/svg" viewBox="0 0 83.42 83.42"><defs><style>.cls-1{fill:#fff;}.cls-2{fill:#f5d492;}</style></defs><title>10_5</title><g id="Layer_2" data-name="Layer 2"><g id="Layer_2-2" data-name="Layer 2"><path class="cls-1" d="M81.92,83.42H1.5A1.5,1.5,0,0,1,0,81.92V1.5A1.5,1.5,0,0,1,1.5,0H81.92a1.5,1.5,0,0,1,1.5,1.5V81.92A1.5,1.5,0,0,1,81.92,83.42ZM3,80.42H80.42V3H3Z"/><path class="cls-2" d="M52.1,9.17h-20a1.5,1.5,0,0,0-1.5,1.5v20a1.5,1.5,0,0,0,1.5,1.5h20a1.5,1.5,0,0,0,1.5-1.5v-20A1.5,1.5,0,0,0,52.1,9.17Zm-15.73,3L33.6,15V12.17ZM33.6,17.45l5.27-5.28h3.67l-8.94,9Zm15.1-5.28L33.6,27.28V23.61L45,12.17Zm1.9.61v3.67l-.77.76-12,12H34.2L44.52,18.85ZM40.36,29.17,50.6,18.94v3.67L44,29.17Zm6.17,0,4.07-4.06v3.67l-.4.39Z"/></g></g></svg>