<svg xmlns="http://www.w3.org/2000/svg" viewBox="0 0 83.42 83.42"><defs><style>.cls-1{fill:#fff;}.cls-2{fill:#f5d492;}</style></defs><title>10_6</title><g id="Layer_2" data-name="Layer 2"><g id="Layer_2-2" data-name="Layer 2"><path class="cls-1" d="M81.92,83.42H1.5A1.5,1.5,0,0,1,0,81.92V1.5A1.5,1.5,0,0,1,1.5,0H81.92a1.5,1.5,0,0,1,1.5,1.5V81.92A1.5,1.5,0,0,1,81.92,83.42ZM3,80.42H80.42V3H3Z"/><path class="cls-2" d="M61.13,33.19H22.29a1.5,1.5,0,0,0-1.5,1.5V73.53a1.51,1.51,0,0,0,1.5,1.5H61.13a1.5,1.5,0,0,0,1.5-1.5V34.69A1.5,1.5,0,0,0,61.13,33.19ZM53.11,72H47.19L59.63,59.59V65.5Zm-8.89,0H38.3L59.63,50.7v5.91Zm-8.89,0H29.41L59.63,41.81v5.92Zm-5-35.84h5.91L23.79,48.63V42.71Zm8.89,0h5.91L23.79,57.52V51.6Zm8.88,0H54L23.79,66.41V60.49Zm-20.74,0-3.56,3.55V36.19ZM23.79,69.38,57,36.19h2.65v2.65L26.44,72H23.79ZM56.08,72l3.55-3.55V72Z"/></g></g></svg>