<svg xmlns="http://www.w3.org/2000/svg" viewBox="0 0 83.42 83.42"><defs><style>.cls-1{fill:#fff;}.cls-2{fill:#f5d492;}</style></defs><title>12_3</title><g id="Layer_2" data-name="Layer 2"><g id="Layer_2-2" data-name="Layer 2"><path class="cls-1" d="M81.92,83.42H1.5A1.5,1.5,0,0,1,0,81.92V1.5A1.5,1.5,0,0,1,1.5,0H81.92a1.5,1.5,0,0,1,1.5,1.5V81.92A1.5,1.5,0,0,1,81.92,83.42ZM3,80.42H80.42V3H3Z"/><path class="cls-2" d="M41.71,54.53A32.73,32.73,0,0,1,17.84,44.34,1.5,1.5,0,1,1,20,42.27a30.07,30.07,0,0,0,43.41,0,1.5,1.5,0,1,1,2.17,2.07A32.74,32.74,0,0,1,41.71,54.53Z"/><path class="cls-2" d="M41.71,41.62A32.73,32.73,0,0,1,17.84,31.43,1.5,1.5,0,0,1,20,29.36a30.07,30.07,0,0,0,43.41,0,1.5,1.5,0,0,1,2.17,2.07A32.74,32.74,0,0,1,41.71,41.62Z"/></g></g></svg>