<svg xmlns="http://www.w3.org/2000/svg" viewBox="0 0 83.42 83.42"><defs><style>.cls-1{fill:#fff;}.cls-2{fill:#f5d492;}</style></defs><title>12_5</title><g id="Layer_2" data-name="Layer 2"><g id="Layer_2-2" data-name="Layer 2"><path class="cls-1" d="M81.92,83.42H1.5A1.5,1.5,0,0,1,0,81.92V1.5A1.5,1.5,0,0,1,1.5,0H81.92a1.5,1.5,0,0,1,1.5,1.5V81.92A1.5,1.5,0,0,1,81.92,83.42ZM3,80.42H80.42V3H3Z"/><path class="cls-2" d="M36.85,66a1.46,1.46,0,0,1-1.08-.46,1.49,1.49,0,0,1,0-2.12,30.07,30.07,0,0,0,0-43.41,1.5,1.5,0,0,1,2.08-2.17,33.09,33.09,0,0,1,0,47.75A1.54,1.54,0,0,1,36.85,66Z"/></g></g></svg>