<svg xmlns="http://www.w3.org/2000/svg" viewBox="0 0 83.42 83.42"><defs><style>.cls-1{fill:#fff;}.cls-2{fill:#f5d492;}</style></defs><title>12_6</title><g id="Layer_2" data-name="Layer 2"><g id="Layer_2-2" data-name="Layer 2"><path class="cls-1" d="M81.92,83.42H1.5A1.5,1.5,0,0,1,0,81.92V1.5A1.5,1.5,0,0,1,1.5,0H81.92a1.5,1.5,0,0,1,1.5,1.5V81.92A1.5,1.5,0,0,1,81.92,83.42ZM3,80.42H80.42V3H3Z"/><path class="cls-2" d="M41.71,61A32.73,32.73,0,0,1,17.84,50.79,1.5,1.5,0,0,1,20,48.72a30.07,30.07,0,0,0,43.41,0,1.5,1.5,0,1,1,2.17,2.07A32.74,32.74,0,0,1,41.71,61Z"/><path class="cls-2" d="M41.71,48.07A32.72,32.72,0,0,1,17.84,37.89,1.5,1.5,0,0,1,20,35.81a30.07,30.07,0,0,0,43.41,0,1.5,1.5,0,0,1,2.17,2.08A32.73,32.73,0,0,1,41.71,48.07Z"/><path class="cls-2" d="M41.71,35.17A32.73,32.73,0,0,1,17.84,25,1.5,1.5,0,0,1,20,22.91a29.73,29.73,0,0,0,21.7,9.26,29.77,29.77,0,0,0,21.71-9.26A1.5,1.5,0,0,1,65.59,25,32.74,32.74,0,0,1,41.71,35.17Z"/></g></g></svg>