<svg xmlns="http://www.w3.org/2000/svg" viewBox="0 0 83.42 83.42"><defs><style>.cls-1{fill:#fff;}.cls-2{fill:#93dbd4;}</style></defs><title>13_1</title><g id="Layer_2" data-name="Layer 2"><g id="Layer_2-2" data-name="Layer 2"><path class="cls-1" d="M81.92,83.42H1.5A1.5,1.5,0,0,1,0,81.92V1.5A1.5,1.5,0,0,1,1.5,0H81.92a1.5,1.5,0,0,1,1.5,1.5V81.92A1.5,1.5,0,0,1,81.92,83.42ZM3,80.42H80.42V3H3Z"/><path class="cls-2" d="M60.18,43.21A1.52,1.52,0,0,1,59,42.58L42.29,19.24,24.43,42.62a1.5,1.5,0,0,1-2.38-1.82l19.08-25a1.48,1.48,0,0,1,1.22-.59,1.51,1.51,0,0,1,1.2.63l17.85,25a1.49,1.49,0,0,1-.35,2.09A1.46,1.46,0,0,1,60.18,43.21Z"/></g></g></svg>