<svg xmlns="http://www.w3.org/2000/svg" viewBox="0 0 83.42 83.42"><defs><style>.cls-1{fill:#fff;}.cls-2{fill:#93dbd4;}</style></defs><title>13_2</title><g id="Layer_2" data-name="Layer 2"><g id="Layer_2-2" data-name="Layer 2"><path class="cls-1" d="M81.92,83.42H1.5A1.5,1.5,0,0,1,0,81.92V1.5A1.5,1.5,0,0,1,1.5,0H81.92a1.5,1.5,0,0,1,1.5,1.5V81.92A1.5,1.5,0,0,1,81.92,83.42ZM3,80.42H80.42V3H3Z"/><path class="cls-2" d="M61.4,40.84l-17.85-25a1.51,1.51,0,0,0-1.2-.63,1.53,1.53,0,0,0-1.22.59l-19.08,25a1.5,1.5,0,0,0,0,1.82l19.08,25a1.53,1.53,0,0,0,1.2.59h0a1.51,1.51,0,0,0,1.2-.63l17.85-25A1.47,1.47,0,0,0,61.4,40.84ZM40.71,62.13l-2.24-2.94h7.39l-2.1,2.94Zm8.21-7.72-2.1,2.94H37.41l-2.25-2.94Zm3.41-4.78-2.1,2.94H33.76l-2.24-2.94Zm3.41-4.78-2.1,2.94H30.11l-2.24-2.94ZM38.47,24.24l2.24-2.94h3l2.1,2.94Zm8.7,1.84L49.27,29H34.82l2.25-2.94Zm3.41,4.77,2.1,2.94H31.17l2.25-2.94ZM54,35.63l2.1,2.94H27.52l2.25-2.94Zm3.41,4.78.75,1.05L57.05,43H26.47L25.3,41.49l.82-1.08Zm-15-20.95h-.33l.17-.22Zm-.16,44.73L42.12,64h.33Z"/></g></g></svg>