<svg xmlns="http://www.w3.org/2000/svg" viewBox="0 0 83.42 83.42"><defs><style>.cls-1{fill:#fff;}.cls-2{fill:#93dbd4;}</style></defs><title>13_6</title><g id="Layer_2" data-name="Layer 2"><g id="Layer_2-2" data-name="Layer 2"><path class="cls-1" d="M81.92,83.42H1.5A1.5,1.5,0,0,1,0,81.92V1.5A1.5,1.5,0,0,1,1.5,0H81.92a1.5,1.5,0,0,1,1.5,1.5V81.92A1.5,1.5,0,0,1,81.92,83.42ZM3,80.42H80.42V3H3Z"/><path class="cls-2" d="M42.32,68.21a1.5,1.5,0,0,1-1.22-2.37L58.34,41.71,41.1,17.58a1.5,1.5,0,0,1,2.45-1.74l17.85,25a1.47,1.47,0,0,1,0,1.74l-17.85,25A1.52,1.52,0,0,1,42.32,68.21Z"/></g></g></svg>