<svg xmlns="http://www.w3.org/2000/svg" viewBox="0 0 83.42 83.42"><defs><style>.cls-1{fill:#fff;}.cls-2{fill:#93dbd4;}</style></defs><title>14_1</title><g id="Layer_2" data-name="Layer 2"><g id="Layer_2-2" data-name="Layer 2"><path class="cls-1" d="M81.92,83.42H1.5A1.5,1.5,0,0,1,0,81.92V1.5A1.5,1.5,0,0,1,1.5,0H81.92a1.5,1.5,0,0,1,1.5,1.5V81.92A1.5,1.5,0,0,1,81.92,83.42ZM3,80.42H80.42V3H3Z"/><path class="cls-2" d="M41.71,25.21a16.5,16.5,0,1,0,16.5,16.5A16.52,16.52,0,0,0,41.71,25.21ZM52,33a13.69,13.69,0,0,1,1.81,2.76L35.75,53.81A13.69,13.69,0,0,1,33,52Zm2.59,4.67a13.54,13.54,0,0,1,.62,4l-13.6,13.6a13.54,13.54,0,0,1-4-.62Zm-11.85-9.4a13.32,13.32,0,0,1,3.73.84L29.1,46.47a13.24,13.24,0,0,1-.84-3.73ZM40,28.34,28.34,40A13.5,13.5,0,0,1,40,28.34Zm-10,20L48.31,29.94a13.74,13.74,0,0,1,2.36,1.7l-19,19A13.22,13.22,0,0,1,29.94,48.31Zm14.67,6.58L54.89,44.61A13.51,13.51,0,0,1,44.61,54.89Z"/></g></g></svg>