<svg xmlns="http://www.w3.org/2000/svg" viewBox="0 0 83.42 83.42"><defs><style>.cls-1{fill:#fff;}.cls-2{fill:#f5d492;}</style></defs><title>14_2</title><g id="Layer_2" data-name="Layer 2"><g id="Layer_2-2" data-name="Layer 2"><path class="cls-1" d="M81.92,83.42H1.5A1.5,1.5,0,0,1,0,81.92V1.5A1.5,1.5,0,0,1,1.5,0H81.92a1.5,1.5,0,0,1,1.5,1.5V81.92A1.5,1.5,0,0,1,81.92,83.42ZM3,80.42H80.42V3H3Z"/><path class="cls-2" d="M41.71,31.21a10.5,10.5,0,1,0,10.5,10.5A10.51,10.51,0,0,0,41.71,31.21Zm0,18A7,7,0,0,1,40,49l9-9a7.5,7.5,0,0,1,.21,1.72c0,.08,0,.16,0,.25L42,49.2Zm.34-15a7.54,7.54,0,0,1,1.85.31L34.54,43.9a7.54,7.54,0,0,1-.31-1.85ZM35.2,45.42,45.42,35.2a7.43,7.43,0,0,1,1.1.76L36,46.52A7.43,7.43,0,0,1,35.2,45.42Zm12.39-8.36a8.29,8.29,0,0,1,.84,1.33l-10,10a8.29,8.29,0,0,1-1.33-.84Zm-8-2.53-5,5A7.52,7.52,0,0,1,39.58,34.53Zm5.2,14,3.77-3.77A7.53,7.53,0,0,1,44.78,48.55Z"/></g></g></svg>