<svg xmlns="http://www.w3.org/2000/svg" viewBox="0 0 83.42 83.42"><defs><style>.cls-1{fill:#fff;}.cls-2{fill:#f5d492;}</style></defs><title>14_3</title><g id="Layer_2" data-name="Layer 2"><g id="Layer_2-2" data-name="Layer 2"><path class="cls-1" d="M81.92,83.42H1.5A1.5,1.5,0,0,1,0,81.92V1.5A1.5,1.5,0,0,1,1.5,0H81.92a1.5,1.5,0,0,1,1.5,1.5V81.92A1.5,1.5,0,0,1,81.92,83.42ZM3,80.42H80.42V3H3Z"/><path class="cls-2" d="M41.57,17.75a24,24,0,1,0,24,24A24,24,0,0,0,41.57,17.75Zm17,11.67a20.39,20.39,0,0,1,1.71,2.75L32,60.41a22.1,22.1,0,0,1-2.75-1.7ZM61.07,34a20.7,20.7,0,0,1,1,3.41L37.23,62.29a20.43,20.43,0,0,1-3.41-1ZM45.91,21.2a20.73,20.73,0,0,1,3.41,1.05L22.07,49.5a21,21,0,0,1-1-3.41Zm5.24,1.88a22.1,22.1,0,0,1,2.75,1.7L24.61,54.07a20.39,20.39,0,0,1-1.71-2.75Zm-7.54-2.23L20.67,43.78c-.06-.67-.1-1.35-.1-2a20.39,20.39,0,0,1,.16-2.48L39.1,20.9a22.29,22.29,0,0,1,2.47-.15A19.63,19.63,0,0,1,43.61,20.85Zm-7.85.73L21.4,35.94A21.06,21.06,0,0,1,35.76,21.58Zm-10,34L55.38,26a21.65,21.65,0,0,1,2,2L27.76,57.53A21.65,21.65,0,0,1,25.79,55.55Zm13.74,7.09L62.47,39.71c.06.67.1,1.35.1,2a20.35,20.35,0,0,1-.16,2.47L44,62.59a22.27,22.27,0,0,1-2.47.16A19.61,19.61,0,0,1,39.53,62.64Zm7.85-.73L61.74,47.55A21.06,21.06,0,0,1,47.38,61.91Z"/></g></g></svg>