<svg xmlns="http://www.w3.org/2000/svg" viewBox="0 0 83.42 83.42"><defs><style>.cls-1{fill:#fff;}.cls-2{fill:#93dbd4;}</style></defs><title>14_4</title><g id="Layer_2" data-name="Layer 2"><g id="Layer_2-2" data-name="Layer 2"><path class="cls-1" d="M81.92,83.42H1.5A1.5,1.5,0,0,1,0,81.92V1.5A1.5,1.5,0,0,1,1.5,0H81.92a1.5,1.5,0,0,1,1.5,1.5V81.92A1.5,1.5,0,0,1,81.92,83.42ZM3,80.42H80.42V3H3Z"/><path class="cls-2" d="M41.71,10.21a31.5,31.5,0,1,0,31.5,31.5A31.53,31.53,0,0,0,41.71,10.21ZM64.86,25.12a27.92,27.92,0,0,1,2.54,4.25l-38,38a27.92,27.92,0,0,1-4.25-2.54Zm3.48,6.46a28.72,28.72,0,0,1,1.46,5.33L36.91,69.8a27.25,27.25,0,0,1-5.33-1.46ZM47.11,13.73a27.79,27.79,0,0,1,5.24,1.55L15.28,52.35a27.79,27.79,0,0,1-1.55-5.24Zm7.41,2.54a28.21,28.21,0,0,1,4.2,2.59L18.86,58.72a28.21,28.21,0,0,1-2.59-4.2ZM44.35,13.34l-31,31c-.08-.87-.13-1.75-.13-2.64a28.37,28.37,0,0,1,.34-4.35L37.36,13.55a28.37,28.37,0,0,1,4.35-.34C42.6,13.21,43.48,13.26,44.35,13.34Zm-11.1,1.15L14.49,33.25A28.65,28.65,0,0,1,33.25,14.49Zm-13,46L60.46,20.27a30.18,30.18,0,0,1,3,3.07L23.34,63.48A29.18,29.18,0,0,1,20.27,60.46Zm19.46,9.68L70.14,39.73c0,.66.07,1.32.07,2a29,29,0,0,1-.48,5.22l-22.8,22.8a29,29,0,0,1-5.22.48C41.05,70.21,40.39,70.18,39.73,70.14Zm11.51-1.57L68.57,51.24A28.65,28.65,0,0,1,51.24,68.57Z"/></g></g></svg>