<svg xmlns="http://www.w3.org/2000/svg" viewBox="0 0 83.42 83.42"><defs><style>.cls-1{fill:#fff;}.cls-2{fill:#f5d492;}</style></defs><title>15_1</title><g id="Layer_2" data-name="Layer 2"><g id="Layer_2-2" data-name="Layer 2"><path class="cls-1" d="M81.92,83.42H1.5A1.5,1.5,0,0,1,0,81.92V1.5A1.5,1.5,0,0,1,1.5,0H81.92a1.5,1.5,0,0,1,1.5,1.5V81.92A1.5,1.5,0,0,1,81.92,83.42ZM3,80.42H80.42V3H3Z"/><path class="cls-2" d="M71.52,22.76H11.9a3.58,3.58,0,0,1-3.58-3.58V11.72A3.59,3.59,0,0,1,11.9,8.14H71.52a3.58,3.58,0,0,1,3.58,3.58v7.46A3.58,3.58,0,0,1,71.52,22.76ZM11.9,11.14a.59.59,0,0,0-.58.58v7.46a.59.59,0,0,0,.58.58H71.52a.58.58,0,0,0,.58-.58V11.72a.58.58,0,0,0-.58-.58Z"/></g></g></svg>