<svg xmlns="http://www.w3.org/2000/svg" viewBox="0 0 83.42 83.42"><defs><style>.cls-1{fill:#fff;}.cls-2{fill:#f5d492;}</style></defs><title>15_4</title><g id="Layer_2" data-name="Layer 2"><g id="Layer_2-2" data-name="Layer 2"><path class="cls-1" d="M81.92,83.42H1.5A1.5,1.5,0,0,1,0,81.92V1.5A1.5,1.5,0,0,1,1.5,0H81.92a1.5,1.5,0,0,1,1.5,1.5V81.92A1.5,1.5,0,0,1,81.92,83.42ZM3,80.42H80.42V3H3Z"/><path class="cls-2" d="M19.71,75.51H12.25a3.58,3.58,0,0,1-3.58-3.58V12.31a3.59,3.59,0,0,1,3.58-3.58h7.46a3.58,3.58,0,0,1,3.58,3.58V71.93A3.58,3.58,0,0,1,19.71,75.51ZM12.25,11.73a.59.59,0,0,0-.58.58V71.93a.58.58,0,0,0,.58.58h7.46a.58.58,0,0,0,.58-.58V12.31a.59.59,0,0,0-.58-.58Z"/></g></g></svg>