<svg xmlns="http://www.w3.org/2000/svg" viewBox="0 0 83.42 83.42"><defs><style>.cls-1{fill:#fff;}.cls-2{fill:#f5d492;}</style></defs><title>16_2</title><g id="Layer_2" data-name="Layer 2"><g id="Layer_2-2" data-name="Layer 2"><path class="cls-1" d="M81.92,83.42H1.5A1.5,1.5,0,0,1,0,81.92V1.5A1.5,1.5,0,0,1,1.5,0H81.92a1.5,1.5,0,0,1,1.5,1.5V81.92A1.5,1.5,0,0,1,81.92,83.42ZM3,80.42H80.42V3H3Z"/><path class="cls-2" d="M41.71,17.71a24,24,0,1,0,24,24A24,24,0,0,0,41.71,17.71Zm17,11.67a22.1,22.1,0,0,1,1.7,2.75L32.13,60.38a22.1,22.1,0,0,1-2.75-1.7ZM61.21,34a19.78,19.78,0,0,1,1,3.41L37.37,62.25a19.78,19.78,0,0,1-3.41-1ZM46.05,21.17a21.39,21.39,0,0,1,3.41,1L22.21,49.46a21.59,21.59,0,0,1-1-3.4Zm5.24,1.88A20,20,0,0,1,54,24.75L24.75,54a20,20,0,0,1-1.7-2.75Zm-7.54-2.23L20.81,43.75c-.06-.67-.1-1.35-.1-2a20.22,20.22,0,0,1,.16-2.47L39.24,20.87a20.09,20.09,0,0,1,2.47-.16A19.61,19.61,0,0,1,43.75,20.82Zm-7.84.73L21.55,35.91A21,21,0,0,1,35.91,21.55Zm-10,34L55.52,25.93a21.65,21.65,0,0,1,2,2L27.91,57.5A20.56,20.56,0,0,1,25.93,55.52Zm13.75,7.09L62.61,39.68c.06.67.1,1.34.1,2a20.09,20.09,0,0,1-.16,2.47L44.18,62.55a20.09,20.09,0,0,1-2.47.16C41,62.71,40.35,62.67,39.68,62.61Zm7.84-.73L61.88,47.52A21.1,21.1,0,0,1,47.52,61.88Z"/></g></g></svg>