<svg xmlns="http://www.w3.org/2000/svg" viewBox="0 0 83.42 83.42"><defs><style>.cls-1{fill:#fff;}.cls-2{fill:#93dbd4;}</style></defs><title>16_4</title><g id="Layer_2" data-name="Layer 2"><g id="Layer_2-2" data-name="Layer 2"><path class="cls-1" d="M81.92,83.42H1.5A1.5,1.5,0,0,1,0,81.92V1.5A1.5,1.5,0,0,1,1.5,0H81.92a1.5,1.5,0,0,1,1.5,1.5V81.92A1.5,1.5,0,0,1,81.92,83.42ZM3,80.42H80.42V3H3Z"/><path class="cls-2" d="M64,59.15,43,22.78a1.5,1.5,0,0,0-2.6,0l-21,36.37a1.49,1.49,0,0,0,0,1.5,1.52,1.52,0,0,0,1.3.75h42a1.51,1.51,0,0,0,1.3-.75A1.49,1.49,0,0,0,64,59.15ZM48.92,39l1.44,2.51L33.47,58.4H29.52Zm2.42,4.2L53,46,40.59,58.4H36.13Zm2.6,4.5,1.63,2.83L47.7,58.4H43.25Zm2.6,4.51L58.17,55,54.81,58.4H50.36ZM43.71,30l1.63,2.82L28.17,50l6.09-10.53Zm-2-3.46,1,1.77-4.85,4.85ZM24.54,56.27,46.31,34.49l1.63,2.83L26.86,58.4H23.31ZM57.47,58.4l1.68-1.68,1,1.68Z"/></g></g></svg>