<svg xmlns="http://www.w3.org/2000/svg" viewBox="0 0 83.42 83.42"><defs><style>.cls-1{fill:#fff;}.cls-2{fill:#f5d492;}</style></defs><title>17_1</title><g id="Layer_2" data-name="Layer 2"><g id="Layer_2-2" data-name="Layer 2"><path class="cls-1" d="M81.92,83.42H1.5A1.5,1.5,0,0,1,0,81.92V1.5A1.5,1.5,0,0,1,1.5,0H81.92a1.5,1.5,0,0,1,1.5,1.5V81.92A1.5,1.5,0,0,1,81.92,83.42ZM3,80.42H80.42V3H3Z"/><path class="cls-2" d="M62.71,61.4h-42a1.52,1.52,0,0,1-1.3-.75,1.49,1.49,0,0,1,0-1.5l21-36.37a1.5,1.5,0,0,1,2.6,0L64,59.15a1.49,1.49,0,0,1,0,1.5A1.51,1.51,0,0,1,62.71,61.4Zm-39.4-3h36.8L41.71,26.53Z"/></g></g></svg>