<svg xmlns="http://www.w3.org/2000/svg" viewBox="0 0 83.42 83.42"><defs><style>.cls-1{fill:#fff;}.cls-2{fill:#f5d492;}</style></defs><title>17_5</title><g id="Layer_2" data-name="Layer 2"><g id="Layer_2-2" data-name="Layer 2"><path class="cls-1" d="M81.92,83.42H1.5A1.5,1.5,0,0,1,0,81.92V1.5A1.5,1.5,0,0,1,1.5,0H81.92a1.5,1.5,0,0,1,1.5,1.5V81.92A1.5,1.5,0,0,1,81.92,83.42ZM3,80.42H80.42V3H3Z"/><path class="cls-2" d="M41.71,64.71a1.48,1.48,0,0,1-1-.42l-17.5-17a1.51,1.51,0,0,1-.46-1.08v-26a1.5,1.5,0,0,1,1.5-1.5h35a1.5,1.5,0,0,1,1.5,1.5v26a1.5,1.5,0,0,1-.45,1.08l-17.5,17A1.51,1.51,0,0,1,41.71,64.71Zm-16-19.13,16,15.54,16-15.54V21.71h-32Z"/></g></g></svg>