<svg xmlns="http://www.w3.org/2000/svg" viewBox="0 0 83.42 83.42"><defs><style>.cls-1{fill:#fff;}.cls-2{fill:#f5d492;}</style></defs><title>17_6</title><g id="Layer_2" data-name="Layer 2"><g id="Layer_2-2" data-name="Layer 2"><path class="cls-1" d="M81.92,83.42H1.5A1.5,1.5,0,0,1,0,81.92V1.5A1.5,1.5,0,0,1,1.5,0H81.92a1.5,1.5,0,0,1,1.5,1.5V81.92A1.5,1.5,0,0,1,81.92,83.42ZM3,80.42H80.42V3H3Z"/><path class="cls-2" d="M64.71,49.6a1.51,1.51,0,0,1-1-.43l-22-21.33L19.76,49.17A1.5,1.5,0,0,1,17.67,47l23-22.34a1.49,1.49,0,0,1,2.09,0L65.76,47a1.5,1.5,0,0,1,0,2.12A1.53,1.53,0,0,1,64.71,49.6Z"/></g></g></svg>