<svg xmlns="http://www.w3.org/2000/svg" viewBox="0 0 83.42 83.42"><defs><style>.cls-1{fill:#fff;}.cls-2{fill:#93dbd4;}</style></defs><title>18_1</title><g id="Layer_2" data-name="Layer 2"><g id="Layer_2-2" data-name="Layer 2"><path class="cls-1" d="M81.92,83.42H1.5A1.5,1.5,0,0,1,0,81.92V1.5A1.5,1.5,0,0,1,1.5,0H81.92a1.5,1.5,0,0,1,1.5,1.5V81.92A1.5,1.5,0,0,1,81.92,83.42ZM3,80.42H80.42V3H3Z"/><path class="cls-2" d="M18.14,61.2a1.46,1.46,0,0,1-.85-.27,1.49,1.49,0,0,1-.65-1.23v-36a1.49,1.49,0,0,1,.65-1.24,1.47,1.47,0,0,1,1.38-.16l47.15,18a1.5,1.5,0,0,1,0,2.8l-47.15,18A1.39,1.39,0,0,1,18.14,61.2Zm1.5-35.3V57.52L61.08,41.71Z"/></g></g></svg>