<svg xmlns="http://www.w3.org/2000/svg" viewBox="0 0 83.42 83.42"><defs><style>.cls-1{fill:#fff;}.cls-2{fill:#f5d492;}</style></defs><title>18_2</title><g id="Layer_2" data-name="Layer 2"><g id="Layer_2-2" data-name="Layer 2"><path class="cls-1" d="M81.92,83.42H1.5A1.5,1.5,0,0,1,0,81.92V1.5A1.5,1.5,0,0,1,1.5,0H81.92a1.5,1.5,0,0,1,1.5,1.5V81.92A1.5,1.5,0,0,1,81.92,83.42ZM3,80.42H80.42V3H3Z"/><path class="cls-2" d="M49.29,60.07a3.49,3.49,0,0,1-3.46-3.47V52.33a.46.46,0,0,0-.46-.46H19.24a3.46,3.46,0,0,1-3.46-3.46V35a3.46,3.46,0,0,1,3.46-3.46H45.37a.45.45,0,0,0,.46-.46V26.82a3.46,3.46,0,0,1,5.91-2.45h0l14.89,14.9a3.46,3.46,0,0,1,0,4.89L51.74,59.05A3.5,3.5,0,0,1,49.29,60.07Zm-30-25.52a.47.47,0,0,0-.46.46v13.4a.46.46,0,0,0,.46.46H45.37a3.46,3.46,0,0,1,3.46,3.46V56.6a.44.44,0,0,0,.28.43.45.45,0,0,0,.51-.1L64.51,42a.46.46,0,0,0,0-.65L49.62,26.49h0a.44.44,0,0,0-.51-.09.44.44,0,0,0-.28.42v4.27a3.46,3.46,0,0,1-3.46,3.46Z"/></g></g></svg>