<svg xmlns="http://www.w3.org/2000/svg" viewBox="0 0 83.42 83.42"><defs><style>.cls-1{fill:#fff;}.cls-2{fill:#93dbd4;}</style></defs><title>18_3</title><g id="Layer_2" data-name="Layer 2"><g id="Layer_2-2" data-name="Layer 2"><path class="cls-1" d="M81.92,83.42H1.5A1.5,1.5,0,0,1,0,81.92V1.5A1.5,1.5,0,0,1,1.5,0H81.92a1.5,1.5,0,0,1,1.5,1.5V81.92A1.5,1.5,0,0,1,81.92,83.42ZM3,80.42H80.42V3H3Z"/><path class="cls-2" d="M41.71,66.79a1.5,1.5,0,0,1-1.4-1l-18-47.15a1.53,1.53,0,0,1,.17-1.39,1.51,1.51,0,0,1,1.24-.64h36a1.5,1.5,0,0,1,1.4,2l-18,47.15A1.5,1.5,0,0,1,41.71,66.79ZM25.9,19.64,41.71,61.08,57.52,19.64Z"/></g></g></svg>