<svg xmlns="http://www.w3.org/2000/svg" viewBox="0 0 83.42 83.42"><defs><style>.cls-1{fill:#fff;}.cls-2{fill:#93dbd4;}</style></defs><title>18_4</title><g id="Layer_2" data-name="Layer 2"><g id="Layer_2-2" data-name="Layer 2"><path class="cls-1" d="M81.92,83.42H1.5A1.5,1.5,0,0,1,0,81.92V1.5A1.5,1.5,0,0,1,1.5,0H81.92a1.5,1.5,0,0,1,1.5,1.5V81.92A1.5,1.5,0,0,1,81.92,83.42ZM3,80.42H80.42V3H3Z"/><path class="cls-2" d="M41.71,67.64a3.43,3.43,0,0,1-2.44-1L24.37,51.74h0a3.46,3.46,0,0,1,2.45-5.91h4.27a.45.45,0,0,0,.46-.46V19.24A3.46,3.46,0,0,1,35,15.78h13.4a3.46,3.46,0,0,1,3.46,3.46V45.37a.46.46,0,0,0,.46.46H56.6a3.46,3.46,0,0,1,2.45,5.91L44.16,66.63A3.44,3.44,0,0,1,41.71,67.64Zm-15.22-18,14.9,14.89a.4.4,0,0,0,.65,0L56.93,49.62a.45.45,0,0,0,.1-.51.44.44,0,0,0-.43-.28H52.33a3.46,3.46,0,0,1-3.46-3.46V19.24a.46.46,0,0,0-.46-.46H35a.47.47,0,0,0-.46.46V45.37a3.46,3.46,0,0,1-3.46,3.46H26.82a.46.46,0,0,0-.32.79Z"/></g></g></svg>