<svg xmlns="http://www.w3.org/2000/svg" viewBox="0 0 83.42 83.42"><defs><style>.cls-1{fill:#fff;}.cls-2{fill:#f5d492;}</style></defs><title>18_5</title><g id="Layer_2" data-name="Layer 2"><g id="Layer_2-2" data-name="Layer 2"><path class="cls-1" d="M81.92,83.42H1.5A1.5,1.5,0,0,1,0,81.92V1.5A1.5,1.5,0,0,1,1.5,0H81.92a1.5,1.5,0,0,1,1.5,1.5V81.92A1.5,1.5,0,0,1,81.92,83.42ZM3,80.42H80.42V3H3Z"/><path class="cls-2" d="M34.13,60.07a3.45,3.45,0,0,1-2.44-1L16.8,44.16a3.44,3.44,0,0,1,0-4.89l14.89-14.9h0a3.45,3.45,0,0,1,5.9,2.45v4.27a.46.46,0,0,0,.46.46H64.18A3.46,3.46,0,0,1,67.64,35v13.4a3.46,3.46,0,0,1-3.46,3.46H38.05a.47.47,0,0,0-.46.46V56.6a3.47,3.47,0,0,1-3.46,3.47Zm-.32-33.58L18.92,41.39a.46.46,0,0,0-.14.32.49.49,0,0,0,.14.33L33.81,56.93a.44.44,0,0,0,.5.1.43.43,0,0,0,.28-.43V52.33a3.46,3.46,0,0,1,3.46-3.46H64.18a.45.45,0,0,0,.46-.46V35a.46.46,0,0,0-.46-.46H38.05a3.46,3.46,0,0,1-3.46-3.46V26.82a.46.46,0,0,0-.78-.32Z"/></g></g></svg>