<svg xmlns="http://www.w3.org/2000/svg" viewBox="0 0 83.42 83.42"><defs><style>.cls-1{fill:#fff;}.cls-2{fill:#f5d492;}</style></defs><title>18_6</title><g id="Layer_2" data-name="Layer 2"><g id="Layer_2-2" data-name="Layer 2"><path class="cls-1" d="M81.92,83.42H1.5A1.5,1.5,0,0,1,0,81.92V1.5A1.5,1.5,0,0,1,1.5,0H81.92a1.5,1.5,0,0,1,1.5,1.5V81.92A1.5,1.5,0,0,1,81.92,83.42ZM3,80.42H80.42V3H3Z"/><path class="cls-2" d="M59.7,66.79h-36a1.5,1.5,0,0,1-1.4-2l18-47.15a1.5,1.5,0,0,1,2.8,0l18,47.15a1.53,1.53,0,0,1-.17,1.39A1.49,1.49,0,0,1,59.7,66.79Zm-33.8-3H57.52L41.71,22.34Z"/></g></g></svg>