<svg xmlns="http://www.w3.org/2000/svg" viewBox="0 0 83.42 83.42"><defs><style>.cls-1{fill:#fff;}.cls-2{fill:#93dbd4;}</style></defs><title>19_2</title><g id="Layer_2" data-name="Layer 2"><g id="Layer_2-2" data-name="Layer 2"><path class="cls-1" d="M81.92,83.42H1.5A1.5,1.5,0,0,1,0,81.92V1.5A1.5,1.5,0,0,1,1.5,0H81.92a1.5,1.5,0,0,1,1.5,1.5V81.92A1.5,1.5,0,0,1,81.92,83.42ZM3,80.42H80.42V3H3Z"/><path class="cls-2" d="M35.48,25.21a16.21,16.21,0,0,0-1.92.12,2.39,2.39,0,0,0-.92,4.44,13.8,13.8,0,0,1,0,23.88,2.41,2.41,0,0,0-1.19,2.07,2.31,2.31,0,0,0,.05.49,2.38,2.38,0,0,0,2.08,1.88,17,17,0,0,0,1.9.12,16.5,16.5,0,0,0,0-33ZM42.12,30A13.33,13.33,0,0,1,44,31.29l-3.18,3.19a17.69,17.69,0,0,0-1.18-2.08Zm.25,13.91a17.32,17.32,0,0,0,.15-2.17q0-.41,0-.81l5.11-5.1a14.93,14.93,0,0,1,.81,2Zm-.12-5.14a16.12,16.12,0,0,0-.69-2.56l3.72-3.72a13.93,13.93,0,0,1,1.45,1.8ZM35.8,28.22l0,0-.05,0Zm1.28,1.13.89-.89a13.5,13.5,0,0,1,2.52.73L38.66,31A17.82,17.82,0,0,0,37.08,29.35ZM41.64,47l7.19-7.19A13,13,0,0,1,49,41.71c0,.44,0,.86-.07,1.29L36.77,55.14c-.35,0-.7.06-1.06.07A16.91,16.91,0,0,0,41.64,47Zm-1.81,7.46,8.41-8.4A13.52,13.52,0,0,1,39.83,54.48Z"/></g></g></svg>