<svg xmlns="http://www.w3.org/2000/svg" viewBox="0 0 83.42 83.42"><defs><style>.cls-1{fill:#fff;}.cls-2{fill:#f5d492;}</style></defs><title>19_3</title><g id="Layer_2" data-name="Layer 2"><g id="Layer_2-2" data-name="Layer 2"><path class="cls-1" d="M81.92,83.42H1.5A1.5,1.5,0,0,1,0,81.92V1.5A1.5,1.5,0,0,1,1.5,0H81.92a1.5,1.5,0,0,1,1.5,1.5V81.92A1.5,1.5,0,0,1,81.92,83.42ZM3,80.42H80.42V3H3Z"/><path class="cls-2" d="M72.62,66,43,16a1.49,1.49,0,0,0-2.58,0L10.81,66a1.47,1.47,0,0,0,0,1.5,1.48,1.48,0,0,0,1.3.76H71.33a1.51,1.51,0,0,0,1.3-.76A1.49,1.49,0,0,0,72.62,66ZM61,65.21H53.83l9.34-9.33,2.66,4.49ZM51.84,36.75l2.39,4L29.8,65.21H23.37Zm3.59,6.07,2.66,4.5L40.2,65.21H33Zm3.87,6.53L62,53.85,50.59,65.21H43.43ZM44.1,23.69l2.66,4.5L22,53l10.4-17.56Zm-2.39-4,1.19,2-5.82,5.81ZM17.28,60.9,48,30.22l2.66,4.5L20.14,65.21H14.73Zm47,4.31,2.8-2.8,1.66,2.8Z"/></g></g></svg>