<svg xmlns="http://www.w3.org/2000/svg" viewBox="0 0 83.42 83.42"><defs><style>.cls-1{fill:#fff;}.cls-2{fill:#f5d492;}</style></defs><title>19_4</title><g id="Layer_2" data-name="Layer 2"><g id="Layer_2-2" data-name="Layer 2"><path class="cls-1" d="M81.92,83.42H1.5A1.5,1.5,0,0,1,0,81.92V1.5A1.5,1.5,0,0,1,1.5,0H81.92a1.5,1.5,0,0,1,1.5,1.5V81.92A1.5,1.5,0,0,1,81.92,83.42ZM3,80.42H80.42V3H3Z"/><path class="cls-2" d="M60.77,56,43,26a1.49,1.49,0,0,0-2.58,0L22.65,56a1.49,1.49,0,0,0,0,1.5,1.51,1.51,0,0,0,1.3.76H59.48a1.48,1.48,0,0,0,1.3-.76A1.47,1.47,0,0,0,60.77,56ZM47.45,39.35l1.23,2.07L34.88,55.21H31.59ZM49.61,43,51,45.33l-9.88,9.88H37.39Zm2.32,3.92,1.39,2.34-6,6H43.63Zm2.32,3.92,1.39,2.34-2,2H49.87ZM42.81,31.51l1.39,2.35L32,46.06l5.41-9.15Zm-.93-1.57-.82.82.65-1.1ZM28.35,52.21,45.13,35.43l1.39,2.34L29.08,55.21h-2.5Zm27.75,3,.47-.47.28.47Z"/></g></g></svg>