<svg xmlns="http://www.w3.org/2000/svg" viewBox="0 0 83.42 83.42"><defs><style>.cls-1{fill:#fff;}.cls-2{fill:#f5d492;}</style></defs><title>19_6</title><g id="Layer_2" data-name="Layer 2"><g id="Layer_2-2" data-name="Layer 2"><path class="cls-1" d="M81.92,83.42H1.5A1.5,1.5,0,0,1,0,81.92V1.5A1.5,1.5,0,0,1,1.5,0H81.92a1.5,1.5,0,0,1,1.5,1.5V81.92A1.5,1.5,0,0,1,81.92,83.42ZM3,80.42H80.42V3H3Z"/><path class="cls-2" d="M31.32,15.21a27.53,27.53,0,0,0-3.07.18,3,3,0,0,0-2.57,2.36,3,3,0,0,0,1.42,3.19,24,24,0,0,1,0,41.53,3,3,0,0,0-1.49,2.58,2.69,2.69,0,0,0,.07.61A3,3,0,0,0,28.27,68a26.89,26.89,0,0,0,3.05.19,26.5,26.5,0,0,0,0-53Zm10.73,26.5c0-.28,0-.55,0-.83L52.12,30.79a23.71,23.71,0,0,1,1.66,4L41.5,47.11A27,27,0,0,0,42.05,41.71ZM51,28.86,41.8,38a26.94,26.94,0,0,0-1.24-5.12l7.59-7.59A24.06,24.06,0,0,1,51,28.86ZM31.32,18.21c.65,0,1.29,0,1.93.09l-1.91,1.91a28.33,28.33,0,0,0-2.73-1.84A23.38,23.38,0,0,1,31.32,18.21ZM33,21.59,36,18.67a23.45,23.45,0,0,1,4.83,1.54l-4.67,4.66A27.25,27.25,0,0,0,33,21.59Zm4.39,5,5.4-5.4a23.69,23.69,0,0,1,3.74,2.62l-6.88,6.88A27.7,27.7,0,0,0,37.42,26.63ZM28.61,65.06A27.2,27.2,0,0,0,40.19,51.48l14.2-14.2a23.18,23.18,0,0,1,.43,4.43c0,.53,0,1-.06,1.57L32.88,65.15q-.78.06-1.56.06C30.52,65.21,29.64,65.16,28.61,65.06Zm7.86-.42L54.24,46.86A23.57,23.57,0,0,1,36.47,64.64Z"/></g></g></svg>