<svg xmlns="http://www.w3.org/2000/svg" viewBox="0 0 83.42 83.42"><defs><style>.cls-1{fill:#fff;}.cls-2{fill:#93dbd4;}</style></defs><title>add_1</title><g id="Layer_2" data-name="Layer 2"><g id="Layer_2-2" data-name="Layer 2"><path class="cls-1" d="M81.92,83.42H1.5A1.5,1.5,0,0,1,0,81.92V1.5A1.5,1.5,0,0,1,1.5,0H81.92a1.5,1.5,0,0,1,1.5,1.5V81.92A1.5,1.5,0,0,1,81.92,83.42ZM3,80.42H80.42V3H3Z"/><path class="cls-2" d="M68,28.25a3,3,0,0,0-5.55-1.15A24,24,0,0,1,21,27.1a3,3,0,0,0-2.59-1.49,2.69,2.69,0,0,0-.61.07,2.94,2.94,0,0,0-2.35,2.59,27.23,27.23,0,0,0-.2,3.05,26.5,26.5,0,1,0,53,0A27.53,27.53,0,0,0,68,28.25ZM34.32,41c-.4-.11-.81-.24-1.2-.37C33.51,40.77,33.92,40.88,34.32,41Zm7.39,13.82a23.52,23.52,0,0,1-23.5-23.5c0-.79.06-1.68.16-2.71a27.23,27.23,0,0,0,14.71,12L46.73,54.27c.45-.09.89-.21,1.32-.33L35.39,41.28a26.67,26.67,0,0,0,6.32.77c.51,0,1,0,1.52,0l9.86,9.87c.35-.2.7-.4,1-.62l-9.38-9.38A26.9,26.9,0,0,0,51,40.36h0l7.43,7.42A23.41,23.41,0,0,1,41.71,54.82Zm16.74-7c.27-.27.54-.56.8-.85C59,47.23,58.72,47.52,58.45,47.79Zm.8-.85-7-7h0a27.2,27.2,0,0,0,5-2.83l-.06,0,5.25,5.24A23.65,23.65,0,0,1,59.25,46.94Zm3.2-4.58c.19-.36.37-.73.55-1.1C62.82,41.63,62.64,42,62.45,42.36Zm2.41-7q.12-.71.21-1.44Q65,34.64,64.86,35.34Zm.21-1.44-2.16-2.16-.75.91,2.7,2.7A23.26,23.26,0,0,1,63,41.26l-4.84-4.83h0a27.12,27.12,0,0,0,6.89-7.82,23.38,23.38,0,0,1,.16,2.71A24.48,24.48,0,0,1,65.07,33.9Z"/><path class="cls-2" d="M18.61,35.58,37.45,54.42c.64.12,1.28.22,1.93.28L18.33,33.65C18.39,34.3,18.49,34.94,18.61,35.58Z"/></g></g></svg>