<svg xmlns="http://www.w3.org/2000/svg" viewBox="0 0 83.42 83.42"><defs><style>.cls-1{fill:#fff;}.cls-2{fill:#f5d492;}</style></defs><title>add_2</title><g id="Layer_2" data-name="Layer 2"><g id="Layer_2-2" data-name="Layer 2"><path class="cls-1" d="M81.92,83.42H1.5A1.5,1.5,0,0,1,0,81.92V1.5A1.5,1.5,0,0,1,1.5,0H81.92a1.5,1.5,0,0,1,1.5,1.5V81.92A1.5,1.5,0,0,1,81.92,83.42ZM3,80.42H80.42V3H3Z"/><path class="cls-2" d="M26.41,69.71H57a1.5,1.5,0,0,0,1.3-2.25l-30.6-53a1.5,1.5,0,0,0-1.3-.75,1.74,1.74,0,0,0-.39,0,1.51,1.51,0,0,0-1.11,1.45v53A1.5,1.5,0,0,0,26.41,69.71Zm13.18-3,9.4-9.4,3,5.2-4.2,4.2Zm9.94,0,3.1-3.09-.55-1,2.33,4ZM27.91,20.81l2.66,4.59-.16-.27-2.5,2.5Zm0,8.56,3.14-3.13,3,5.2-6.14,6.13Zm0,9.94,6.77-6.77,3,5.2-9.78,9.77Zm0,9.95L38.32,38.84l-.26-.46,3,5.22L27.91,56.76Zm0,9.24,13.8-13.79L41.29,44l7.55,13.09-.49-.86-10.5,10.5h-8.2L45.35,51l-.64-1.11L27.91,66.7Z"/></g></g></svg>