<svg xmlns="http://www.w3.org/2000/svg" viewBox="0 0 83.42 83.42"><defs><style>.cls-1{fill:#fff;}.cls-2{fill:#93dbd4;}</style></defs><title>add_3</title><g id="Layer_2" data-name="Layer 2"><g id="Layer_2-2" data-name="Layer 2"><path class="cls-1" d="M81.92,83.42H1.5A1.5,1.5,0,0,1,0,81.92V1.5A1.5,1.5,0,0,1,1.5,0H81.92a1.5,1.5,0,0,1,1.5,1.5V81.92A1.5,1.5,0,0,1,81.92,83.42ZM3,80.42H80.42V3H3Z"/><path class="cls-2" d="M57,13.71H26.41a1.52,1.52,0,0,0-1.3.75,1.54,1.54,0,0,0,0,1.5l30.6,53a1.52,1.52,0,0,0,1.3.75,1.31,1.31,0,0,0,.39,0,1.49,1.49,0,0,0,1.11-1.45v-53A1.5,1.5,0,0,0,57,13.71Zm-13.17,3-9.4,9.4-3-5.2,4.2-4.2Zm-10,0-3.09,3.1.55,1L29,16.71Zm21.62,45.9L52.86,58l.16.27,2.49-2.49Zm0-8.55-3.13,3.13-3-5.2,6.13-6.14Zm0-10-6.77,6.77-3-5.2,9.77-9.77Zm0-9.94L45.1,44.58l.27.46-3-5.22L55.51,26.67Zm0-9.25L41.72,38.72l.41.72L34.58,26.36l.49.86L45.58,16.71h8.2l-15.7,15.7.63,1.11,16.8-16.8Z"/></g></g></svg>