<svg xmlns="http://www.w3.org/2000/svg" viewBox="0 0 83.42 83.42"><defs><style>.cls-1{fill:#fff;}.cls-2{fill:#f5d492;}</style></defs><title>add_4</title><g id="Layer_2" data-name="Layer 2"><g id="Layer_2-2" data-name="Layer 2"><path class="cls-1" d="M81.92,83.42H1.5A1.5,1.5,0,0,1,0,81.92V1.5A1.5,1.5,0,0,1,1.5,0H81.92a1.5,1.5,0,0,1,1.5,1.5V81.92A1.5,1.5,0,0,1,81.92,83.42ZM3,80.42H80.42V3H3Z"/><path class="cls-2" d="M54.4,15.5H23.8a1.5,1.5,0,0,0-1.3.75,1.54,1.54,0,0,0,0,1.5l30.6,53a1.52,1.52,0,0,0,1.3.75,1.74,1.74,0,0,0,.39,0A1.5,1.5,0,0,0,55.9,70V17A1.5,1.5,0,0,0,54.4,15.5Zm-28,3h4.88l-3.09,3.09.55,1Zm2.43,4.2L33,18.5h8.21l-9.4,9.4ZM52.9,64.4l-2.65-4.59.16.27,2.49-2.5Zm0-8.56L49.77,59l-3-5.2,6.13-6.13Zm0-9.94-6.77,6.77-3-5.2L52.9,37.7Zm0-9.95L42.49,46.37l-2.74-4.76L52.9,28.45Zm0-9.24L39.11,40.51l.42.72L32,28.14l.5.86L43,18.5h8.2L35.47,34.2l.64,1.11L52.9,18.51Z"/></g></g></svg>