<svg xmlns="http://www.w3.org/2000/svg" viewBox="0 0 83.42 83.42"><defs><style>.cls-1{fill:#fff;}.cls-2{fill:#93dbd4;}</style></defs><title>add_6</title><g id="Layer_2" data-name="Layer 2"><g id="Layer_2-2" data-name="Layer 2"><path class="cls-1" d="M81.92,83.42H1.5A1.5,1.5,0,0,1,0,81.92V1.5A1.5,1.5,0,0,1,1.5,0H81.92a1.5,1.5,0,0,1,1.5,1.5V81.92A1.5,1.5,0,0,1,81.92,83.42ZM3,80.42H80.42V3H3Z"/><path class="cls-2" d="M56.32,62.48a24,24,0,0,1,0-41.52,3,3,0,0,0,1.5-2.59,2.77,2.77,0,0,0-.07-.61,3,3,0,0,0-2.59-2.35,27.23,27.23,0,0,0-3-.2,26.5,26.5,0,0,0,0,53A27.36,27.36,0,0,0,55.17,68a3,3,0,0,0,2.58-2.36A3,3,0,0,0,56.32,62.48Zm-10-5.28-5.24,5.25a24,24,0,0,1-4.58-3.2l7-7A27.06,27.06,0,0,0,46.3,57.2Zm1.55-38.59L29,37.45A23.54,23.54,0,0,1,47.85,18.61ZM29,37.46c-.12.63-.21,1.27-.28,1.92C28.79,38.73,28.88,38.09,29,37.46Zm-.28,1.92L49.78,18.33c-.66.06-1.3.16-1.93.28a23,23,0,0,1,4.26-.4c.79,0,1.68.06,2.7.15a27.23,27.23,0,0,0-12,14.72L29.15,46.73a23.76,23.76,0,0,1-.54-5C28.61,40.93,28.65,40.15,28.72,39.38Zm12.65,2.33c0,.51,0,1,.05,1.52l-9.86,9.86a23.46,23.46,0,0,1-2.08-5L42.14,35.39A26.67,26.67,0,0,0,41.37,41.71Zm1.41-8.54c-.13.38-.24.76-.35,1.15C42.53,33.93,42.65,33.55,42.78,33.17ZM29.48,48.05c-.12-.43-.23-.87-.33-1.31C29.25,47.18,29.36,47.62,29.48,48.05Zm2.08,5.05c.2.35.4.69.61,1C32,53.79,31.76,53.45,31.56,53.1Zm.61,1,9.39-9.38A26.31,26.31,0,0,0,43.06,51l-7.43,7.43A24,24,0,0,1,32.17,54.13Zm4.31,5.11c-.29-.25-.57-.52-.84-.79C35.91,58.72,36.19,59,36.48,59.24Zm4.59,3.21,1.09.55Zm11,2.76a23.23,23.23,0,0,1-4-.35q.72.12,1.44.21l2.16-2.16c-.31-.24-.61-.5-.9-.75l-2.7,2.7A23.33,23.33,0,0,1,42.16,63L47,58.16h0a26.72,26.72,0,0,0,7.82,6.89A23.38,23.38,0,0,1,52.11,65.21Z"/></g></g></svg>