<svg xmlns="http://www.w3.org/2000/svg" viewBox="0 0 83.42 83.42"><defs><style>.cls-1{fill:#fff;}.cls-2{fill:#f5d492;}.cls-3{fill:#93dbd4;}</style></defs><title>20_3</title><g id="Layer_2" data-name="Layer 2"><g id="Layer_2-2" data-name="Layer 2"><path class="cls-1" d="M81.92,83.42H1.5A1.5,1.5,0,0,1,0,81.92V1.5A1.5,1.5,0,0,1,1.5,0H81.92a1.5,1.5,0,0,1,1.5,1.5V81.92A1.5,1.5,0,0,1,81.92,83.42ZM3,80.42H80.42V3H3Z"/><circle class="cls-2" cx="15.07" cy="17.46" r="7.5"/><circle class="cls-3" cx="41.32" cy="17.46" r="7.5"/><circle class="cls-2" cx="67.57" cy="17.46" r="7.5"/><circle class="cls-2" cx="15.07" cy="65.97" r="7.5"/><circle class="cls-2" cx="41.32" cy="65.97" r="7.5"/><circle class="cls-2" cx="67.57" cy="65.97" r="7.5"/><circle class="cls-2" cx="67.57" cy="41.71" r="7.5"/></g></g></svg>