<svg xmlns="http://www.w3.org/2000/svg" viewBox="0 0 83.42 83.42"><defs><style>.cls-1{fill:#fff;}.cls-2{fill:#93dbd4;}</style></defs><title>21_3</title><g id="Layer_2" data-name="Layer 2"><g id="Layer_2-2" data-name="Layer 2"><path class="cls-1" d="M81.92,83.42H1.5A1.5,1.5,0,0,1,0,81.92V1.5A1.5,1.5,0,0,1,1.5,0H81.92a1.5,1.5,0,0,1,1.5,1.5V81.92A1.5,1.5,0,0,1,81.92,83.42ZM3,80.42H80.42V3H3Z"/><path class="cls-2" d="M19.21,56.2a1.43,1.43,0,0,1-.75-.2,1.51,1.51,0,0,1-.75-1.3v-26a1.5,1.5,0,0,1,1.5-1.5h45A1.5,1.5,0,0,1,65,30L20,56A1.43,1.43,0,0,1,19.21,56.2Zm1.5-26V52.1l37.9-21.88Z"/></g></g></svg>