<svg xmlns="http://www.w3.org/2000/svg" viewBox="0 0 83.42 83.42"><defs><style>.cls-1{fill:#fff;}.cls-2{fill:#93dbd4;}</style></defs><title>21_4</title><g id="Layer_2" data-name="Layer 2"><g id="Layer_2-2" data-name="Layer 2"><path class="cls-1" d="M81.92,83.42H1.5A1.5,1.5,0,0,1,0,81.92V1.5A1.5,1.5,0,0,1,1.5,0H81.92a1.5,1.5,0,0,1,1.5,1.5V81.92A1.5,1.5,0,0,1,81.92,83.42ZM3,80.42H80.42V3H3Z"/><path class="cls-2" d="M41.71,65.71c-8.2,0-14.62-10.54-14.62-24s6.42-24,14.62-24,14.63,10.54,14.63,24S49.91,65.71,41.71,65.71Zm0-45c-6.3,0-11.62,9.62-11.62,21s5.32,21,11.62,21,11.63-9.61,11.63-21S48,20.71,41.71,20.71Z"/></g></g></svg>