<svg xmlns="http://www.w3.org/2000/svg" viewBox="0 0 83.42 83.42"><defs><style>.cls-1{fill:#fff;}.cls-2{fill:#93dbd4;}</style></defs><title>21_5</title><g id="Layer_2" data-name="Layer 2"><g id="Layer_2-2" data-name="Layer 2"><path class="cls-1" d="M81.92,83.42H1.5A1.5,1.5,0,0,1,0,81.92V1.5A1.5,1.5,0,0,1,1.5,0H81.92a1.5,1.5,0,0,1,1.5,1.5V81.92A1.5,1.5,0,0,1,81.92,83.42ZM3,80.42H80.42V3H3Z"/><path class="cls-2" d="M41.71,56.34c-13.46,0-24-6.43-24-14.63s10.54-14.62,24-14.62,24,6.42,24,14.62S55.17,56.34,41.71,56.34Zm0-26.25c-11.38,0-21,5.32-21,11.62s9.62,11.63,21,11.63,21-5.33,21-11.63S53.1,30.09,41.71,30.09Z"/></g></g></svg>