<svg xmlns="http://www.w3.org/2000/svg" viewBox="0 0 83.42 83.42"><defs><style>.cls-1{fill:#fff;}.cls-2{fill:#f5d492;}.cls-3{fill:#93dbd4;}</style></defs><title>22_4</title><g id="Layer_2" data-name="Layer 2"><g id="Layer_2-2" data-name="Layer 2"><path class="cls-1" d="M81.92,83.42H1.5A1.5,1.5,0,0,1,0,81.92V1.5A1.5,1.5,0,0,1,1.5,0H81.92a1.5,1.5,0,0,1,1.5,1.5V81.92A1.5,1.5,0,0,1,81.92,83.42ZM3,80.42H80.42V3H3Z"/><path class="cls-2" d="M60.6,77.87a1.45,1.45,0,0,1-1.06-.44l-52-52a1.49,1.49,0,0,1,0-2.12,1.51,1.51,0,0,1,2.12,0l52,52a1.51,1.51,0,0,1,0,2.12A1.47,1.47,0,0,1,60.6,77.87Z"/><circle class="cls-2" cx="49.63" cy="65.4" r="7.73"/><path class="cls-2" d="M76.82,61.66a1.49,1.49,0,0,1-1.06-.44l-52-52a1.5,1.5,0,0,1,2.12-2.13l52,52a1.51,1.51,0,0,1-1.06,2.57Z"/><circle class="cls-3" cx="35.46" cy="18.8" r="7.73"/></g></g></svg>