<svg xmlns="http://www.w3.org/2000/svg" viewBox="0 0 83.42 83.42"><defs><style>.cls-1{fill:#fff;}.cls-2{fill:#f5d492;}.cls-3{fill:#93dbd4;}</style></defs><title>23_4</title><g id="Layer_2" data-name="Layer 2"><g id="Layer_2-2" data-name="Layer 2"><path class="cls-1" d="M81.92,83.42H1.5A1.5,1.5,0,0,1,0,81.92V1.5A1.5,1.5,0,0,1,1.5,0H81.92a1.5,1.5,0,0,1,1.5,1.5V81.92A1.5,1.5,0,0,1,81.92,83.42ZM3,80.42H80.42V3H3Z"/><path class="cls-2" d="M67.31,65.71h-52A1.5,1.5,0,0,1,14,65a1.54,1.54,0,0,1,0-1.5l26-45a1.49,1.49,0,0,1,2.59,0l26,45a1.49,1.49,0,0,1,0,1.5A1.47,1.47,0,0,1,67.31,65.71Zm-49.37-3H64.71L41.32,22.21Z"/><circle class="cls-2" cx="67.31" cy="64.21" r="7.73"/><circle class="cls-3" cx="16.12" cy="64.21" r="7.73"/></g></g></svg>