<svg xmlns="http://www.w3.org/2000/svg" viewBox="0 0 83.42 83.42"><defs><style>.cls-1{fill:#fff;}.cls-2{fill:#f5d492;}</style></defs><title>24_1</title><g id="Layer_2" data-name="Layer 2"><g id="Layer_2-2" data-name="Layer 2"><path class="cls-1" d="M81.92,83.42H1.5A1.5,1.5,0,0,1,0,81.92V1.5A1.5,1.5,0,0,1,1.5,0H81.92a1.5,1.5,0,0,1,1.5,1.5V81.92A1.5,1.5,0,0,1,81.92,83.42ZM3,80.42H80.42V3H3Z"/><path class="cls-2" d="M45.34,67.86a1.51,1.51,0,0,1-1.5-1.5V43.86a1.5,1.5,0,0,1,1.5-1.5h22.5a1.5,1.5,0,0,1,1.5,1.5A24,24,0,0,1,45.34,67.86Zm1.5-22.5V64.8A21,21,0,0,0,66.29,45.36Z"/></g></g></svg>