<svg xmlns="http://www.w3.org/2000/svg" viewBox="0 0 83.42 83.42"><defs><style>.cls-1{fill:#93dbd4;}</style></defs><title>25_1</title><g id="Layer_2" data-name="Layer 2"><g id="Layer_2-2" data-name="Layer 2"><path class="cls-1" d="M81.92,0H1.5A1.5,1.5,0,0,0,0,1.5V81.92a1.5,1.5,0,0,0,1.5,1.5H81.92a1.5,1.5,0,0,0,1.5-1.5V1.5A1.5,1.5,0,0,0,81.92,0Zm-1.5,72.28L11.14,3h8.41L80.42,63.88ZM23.05,3h8.41l49,49v8.4ZM35,3h8.41L80.42,40.06v8.4ZM46.87,3h8.41L80.42,28.15v8.4ZM58.78,3h8.41L80.42,16.24v8.4ZM70.69,3H79.1l1.32,1.33v8.4ZM41.76,48.19,74,80.42H65.58L41.76,56.6Zm0,11.91L62.08,80.42H53.67L41.76,68.51Zm0,11.91,8.41,8.41H41.76ZM35.23,41.66H26.82L3,17.84V9.43Zm3.53,3V80.33H3.09V44.66Zm-15.44-3H14.91L3,29.75V21.34Zm-11.91,0H3V33.25ZM76.76,80.42a2.16,2.16,0,0,0,0-.35,2.11,2.11,0,0,0-.57-1l-34.4-34.4V43.16a1.5,1.5,0,0,0-1.5-1.5H38.73L3,5.93V3H7.64L80,75.31a2.12,2.12,0,0,0,.47.35v4.76Z"/></g></g></svg>