<svg xmlns="http://www.w3.org/2000/svg" viewBox="0 0 83.42 83.42"><defs><style>.cls-1{fill:#93dbd4;}</style></defs><title>25_2</title><g id="Layer_2" data-name="Layer 2"><g id="Layer_2-2" data-name="Layer 2"><path class="cls-1" d="M81.92,0H1.5A1.5,1.5,0,0,0,0,1.5V81.92a1.5,1.5,0,0,0,1.5,1.5H81.92a1.5,1.5,0,0,0,1.5-1.5V1.5A1.5,1.5,0,0,0,81.92,0ZM39.63,44.69l.92.92V54l-5.1-5.1Zm-5.92,6,6.84,6.84v8.41l-11-11Zm-5.93,6L40.55,69.43v8.41l-16.95-17Zm-5.93,6L38,78.83h-8.4l-12-12Zm-5.92,6,10.2,10.2h-8.4l-6-6Zm-5.93,6,4.22,4.22H5.81Zm70.42,5.81H43.54s0,0,0-.09V40.12a1.5,1.5,0,0,0-2.57-1L3,77.41V3H80.42Z"/></g></g></svg>