<svg xmlns="http://www.w3.org/2000/svg" viewBox="0 0 83.42 83.42"><defs><style>.cls-1{fill:#93dbd4;}</style></defs><title>25_3</title><g id="Layer_2" data-name="Layer 2"><g id="Layer_2-2" data-name="Layer 2"><path class="cls-1" d="M81.92,0H1.5A1.5,1.5,0,0,0,0,1.5V81.92a1.5,1.5,0,0,0,1.5,1.5H81.92a1.5,1.5,0,0,0,1.5-1.5V1.5A1.5,1.5,0,0,0,81.92,0ZM44.2,73l6.68,6.68H44.2Zm0-3.41v-8L62.27,79.7h-8Zm0-11.38v-8L73.65,79.7h-8ZM76.1,79.7a1.71,1.71,0,0,0-.55-1.51L44.2,46.84V39.67L79.14,74.6a2,2,0,0,0,1,.55,1.54,1.54,0,0,0,.3,0h0V79.7Zm4.32-7.22L44.2,36.26v-8L80.42,64.51Zm0-11.38L44.2,24.88v-8L80.42,53.12Zm0-11.39L44.2,13.49v-8L80.42,41.74Zm0-11.38L45.82,3.72h8L80.42,30.35Zm0-11.39L57.2,3.72h8L80.42,19Zm0-11.38L68.59,3.72h8l3.86,3.86ZM80,3.72h.45v.46ZM3,3H41.2V80.42H3Z"/></g></g></svg>