<svg xmlns="http://www.w3.org/2000/svg" viewBox="0 0 83.42 83.42"><defs><style>.cls-1{fill:#93dbd4;}</style></defs><title>25_6</title><g id="Layer_2" data-name="Layer 2"><g id="Layer_2-2" data-name="Layer 2"><path class="cls-1" d="M81.92,0H1.5A1.5,1.5,0,0,0,0,1.5V81.92a1.5,1.5,0,0,0,1.5,1.5H81.92a1.5,1.5,0,0,0,1.5-1.5V1.5A1.5,1.5,0,0,0,81.92,0Zm-1.5,72.37L11.05,3h8.41l61,61ZM23,3h8.41L80.42,52.06v8.4ZM34.87,3h8.41L80.42,40.14v8.41ZM46.78,3h8.41L80.42,28.23v8.41ZM58.69,3H67.1L80.42,16.32v8.41ZM70.6,3H79l1.41,1.41v8.41ZM3,77.48V69.07L14.35,80.42H5.94ZM3,65.57V57.16L26.26,80.42H17.85ZM3,53.66V45.25L38.17,80.42H29.76ZM3,41.75V33.34L50.08,80.42H41.67ZM3,29.84V21.43l59,59H53.58ZM3,17.93V9.52l70.9,70.9H65.49ZM77.1,80.42a2.08,2.08,0,0,0-.49-.79L3,6V3H7.55L80.4,75.85s0,0,0,0v4.55Z"/></g></g></svg>