<svg xmlns="http://www.w3.org/2000/svg" viewBox="0 0 83.42 83.44"><defs><style>.cls-1{fill:#93dbd4;}</style></defs><title>25_7</title><g id="Layer_2" data-name="Layer 2"><g id="Layer_2-2" data-name="Layer 2"><path class="cls-1" d="M81.92,0H1.5A1.5,1.5,0,0,0,0,1.5V81.92a1.51,1.51,0,0,0,1,1.43l.11,0,.2,0a1.08,1.08,0,0,0,.19,0H41.37l.13,0H81.92a1.5,1.5,0,0,0,1.5-1.5V1.5A1.5,1.5,0,0,0,81.92,0ZM3,10.34,36.83,44.17,32.65,48.4,3,18.75ZM5.14,80.42,39.87,45.37V80.42ZM3,22.25,30.9,50.16l-4.18,4.22L3,30.66ZM3,34.16l22,22-4.19,4.22L3,42.57ZM3,46.07l16.05,16-4.19,4.23L3,54.48ZM3,58,13.12,68.11,9,72.32,3,66.39ZM7.27,74,3,78.33V69.77Zm35.6,6.4V74l6.3,6.38Zm9.79,0-9.79-9.89v-8.4l18.2,18.29Zm11.9,0L42.87,58.62V50.21L73.08,80.42Zm15.86,0H76.55l-.22-.24L42.87,46.71v-5a1.5,1.5,0,0,0-2.57-1l-1.73,1.74L3,6.84V3H6.73L80.12,76.39a3.48,3.48,0,0,0,.3.26Zm0-7.23L10.23,3h8.41L80.42,64.79Zm0-11.91L22.14,3h8.41L80.42,52.88Zm0-11.91L34.05,3h8.41l38,38Zm0-11.91L46,3h8.41L80.42,29.06Zm0-11.91L57.87,3h8.41L80.42,17.15Zm0-11.91L69.78,3h8.41l2.23,2.24Z"/></g></g></svg>