<svg xmlns="http://www.w3.org/2000/svg" viewBox="0 0 83.42 83.42"><defs><style>.cls-1{fill:#fff;}.cls-2{fill:#f5d492;}</style></defs><title>26_1</title><g id="Layer_2" data-name="Layer 2"><g id="Layer_2-2" data-name="Layer 2"><path class="cls-1" d="M81.92,83.42H1.5A1.5,1.5,0,0,1,0,81.92V1.5A1.5,1.5,0,0,1,1.5,0H81.92a1.5,1.5,0,0,1,1.5,1.5V81.92A1.5,1.5,0,0,1,81.92,83.42ZM3,80.42H80.42V3H3Z"/><path class="cls-2" d="M63.21,64.71h-43a1.5,1.5,0,0,1-1.5-1.5v-43a1.5,1.5,0,0,1,1.5-1.5h43a1.5,1.5,0,0,1,1.5,1.5v43A1.5,1.5,0,0,1,63.21,64.71Zm-41.5-3h40v-40h-40Z"/></g></g></svg>