<svg xmlns="http://www.w3.org/2000/svg" viewBox="0 0 83.42 83.42"><defs><style>.cls-1{fill:#fff;}.cls-2{fill:#f5d492;}</style></defs><title>26_3</title><g id="Layer_2" data-name="Layer 2"><g id="Layer_2-2" data-name="Layer 2"><path class="cls-1" d="M81.92,83.42H1.5A1.5,1.5,0,0,1,0,81.92V1.5A1.5,1.5,0,0,1,1.5,0H81.92a1.5,1.5,0,0,1,1.5,1.5V81.92A1.5,1.5,0,0,1,81.92,83.42ZM3,80.42H80.42V3H3Z"/><path class="cls-2" d="M41.71,64.71a1.5,1.5,0,0,1-1.3-.75L15.59,21a1.5,1.5,0,0,1,1.3-2.25H66.54a1.52,1.52,0,0,1,1.3.75,1.54,1.54,0,0,1,0,1.5L43,64A1.49,1.49,0,0,1,41.71,64.71Zm-22.23-43,22.23,38.5,22.23-38.5Z"/></g></g></svg>