<svg xmlns="http://www.w3.org/2000/svg" viewBox="0 0 83.42 83.42"><defs><style>.cls-1{fill:#fff;}.cls-2{fill:#f5d492;}</style></defs><title>26_4</title><g id="Layer_2" data-name="Layer 2"><g id="Layer_2-2" data-name="Layer 2"><path class="cls-1" d="M81.92,83.42H1.5A1.5,1.5,0,0,1,0,81.92V1.5A1.5,1.5,0,0,1,1.5,0H81.92a1.5,1.5,0,0,1,1.5,1.5V81.92A1.5,1.5,0,0,1,81.92,83.42ZM3,80.42H80.42V3H3Z"/><path class="cls-2" d="M43.31,66a1.48,1.48,0,0,1-1.08-.46,1.5,1.5,0,0,1,.05-2.12,30.07,30.07,0,0,0,0-43.41,1.5,1.5,0,0,1,2.07-2.17,33.06,33.06,0,0,1,0,47.75A1.52,1.52,0,0,1,43.31,66Z"/><path class="cls-2" d="M30.39,66a1.5,1.5,0,0,1-1-2.58,30.07,30.07,0,0,0,0-43.41,1.5,1.5,0,1,1,2.07-2.17,33.06,33.06,0,0,1,0,47.75A1.51,1.51,0,0,1,30.39,66Z"/></g></g></svg>