<svg xmlns="http://www.w3.org/2000/svg" viewBox="0 0 83.42 83.42"><defs><style>.cls-1{fill:#fff;}.cls-2{fill:#f5d492;}</style></defs><title>26_6</title><g id="Layer_2" data-name="Layer 2"><g id="Layer_2-2" data-name="Layer 2"><path class="cls-1" d="M81.92,83.42H1.5A1.5,1.5,0,0,1,0,81.92V1.5A1.5,1.5,0,0,1,1.5,0H81.92a1.5,1.5,0,0,1,1.5,1.5V81.92A1.5,1.5,0,0,1,81.92,83.42ZM3,80.42H80.42V3H3Z"/><path class="cls-2" d="M54.69,63.18h-26a1.48,1.48,0,0,1-1.42-1l-8-24.69a1.5,1.5,0,0,1,.54-1.68l21-15.25a1.47,1.47,0,0,1,1.76,0l21,15.25a1.5,1.5,0,0,1,.55,1.68l-8,24.69A1.5,1.5,0,0,1,54.69,63.18Zm-24.87-3H53.6L61,37.57l-19.24-14-19.23,14Z"/></g></g></svg>