<svg xmlns="http://www.w3.org/2000/svg" viewBox="0 0 83.42 83.42"><defs><style>.cls-1{fill:#fff;}.cls-2{fill:#93dbd4;}.cls-3{fill:#f5d492;}</style></defs><title>27_4</title><g id="Layer_2" data-name="Layer 2"><g id="Layer_2-2" data-name="Layer 2"><path class="cls-1" d="M81.92,83.42H1.5A1.5,1.5,0,0,1,0,81.92V1.5A1.5,1.5,0,0,1,1.5,0H81.92a1.5,1.5,0,0,1,1.5,1.5V81.92A1.5,1.5,0,0,1,81.92,83.42ZM3,80.42H80.42V3H3Z"/><path class="cls-2" d="M26.41,69.71a1.31,1.31,0,0,1-.39,0,1.51,1.51,0,0,1-1.11-1.45v-53a1.5,1.5,0,0,1,1.5-1.5H57a1.51,1.51,0,0,1,1.3.75,1.49,1.49,0,0,1,0,1.5L27.71,69A1.5,1.5,0,0,1,26.41,69.71Zm1.5-53v45.9l26.5-45.9Z"/><circle class="cls-3" cx="31.6" cy="49.17" r="4.5"/></g></g></svg>