<svg xmlns="http://www.w3.org/2000/svg" viewBox="0 0 83.42 83.42"><defs><style>.cls-1{fill:#f5d492;}.cls-2{fill:#93dbd4;}.cls-3{fill:#fff;}</style></defs><title>28_1</title><g id="Layer_2" data-name="Layer 2"><g id="Layer_2-2" data-name="Layer 2"><path class="cls-1" d="M41.71,50.76a9,9,0,1,1,9-9A9,9,0,0,1,41.71,50.76Zm0-16a7,7,0,1,0,7,7A7,7,0,0,0,41.71,34.76Z"/><path class="cls-2" d="M17.49,32.66a9,9,0,1,0,9,9A9,9,0,0,0,17.49,32.66ZM14.58,35.3l-3.46,3.46A7.06,7.06,0,0,1,14.58,35.3Zm-4,5L16.1,34.8a7,7,0,0,1,1.39-.14,6.93,6.93,0,0,1,2.91.65l-9.27,9.27a7.1,7.1,0,0,1-.51-4.3Zm.86,5,9.59-9.59a7,7,0,0,1,2.4,2.4l-9.59,9.59A7.07,7.07,0,0,1,11.48,45.25ZM14.54,48l9.29-9.29a6.92,6.92,0,0,1,.66,2.94A6.55,6.55,0,0,1,24.35,43l-5.53,5.53a6.52,6.52,0,0,1-1.33.13A7.07,7.07,0,0,1,14.54,48Zm5.77.05,3.58-3.57A7,7,0,0,1,20.31,48.06Z"/><path class="cls-2" d="M65.94,50.76a9,9,0,1,1,9-9A9,9,0,0,1,65.94,50.76Zm0-16a7,7,0,1,0,7,7A7,7,0,0,0,65.94,34.76Z"/><path class="cls-3" d="M81.92,83.42H1.5A1.5,1.5,0,0,1,0,81.92V1.5A1.5,1.5,0,0,1,1.5,0H81.92a1.5,1.5,0,0,1,1.5,1.5V81.92A1.5,1.5,0,0,1,81.92,83.42ZM3,80.42H80.42V3H3Z"/></g></g></svg>