<svg xmlns="http://www.w3.org/2000/svg" viewBox="0 0 83.42 83.42"><defs><style>.cls-1{fill:#f5d492;}.cls-2{fill:#93dbd4;}.cls-3{fill:#fff;}</style></defs><title>28_3</title><g id="Layer_2" data-name="Layer 2"><g id="Layer_2-2" data-name="Layer 2"><path class="cls-1" d="M41.71,32.66a9,9,0,1,1-9,9A9,9,0,0,1,41.71,32.66Zm0,16a7,7,0,1,0-7-7A7,7,0,0,0,41.71,48.66Z"/><path class="cls-1" d="M65.94,50.76a9,9,0,1,0-9-9A9,9,0,0,0,65.94,50.76Zm2.9-2.64,3.46-3.46A7,7,0,0,1,68.84,48.12Zm4-5-5.48,5.48a6.95,6.95,0,0,1-4.3-.5l9.27-9.27a6.85,6.85,0,0,1,.51,4.29Zm-.86-5-9.58,9.58A7.07,7.07,0,0,1,60,45.37l9.6-9.6A7.07,7.07,0,0,1,71.94,38.18Zm-3.06-2.76L59.6,44.7a6.88,6.88,0,0,1-.66-2.94,7.23,7.23,0,0,1,.13-1.33l5.53-5.54a7.42,7.42,0,0,1,1.34-.13A6.92,6.92,0,0,1,68.88,35.42Zm-5.76-.06-3.58,3.58A7,7,0,0,1,63.12,35.36Z"/><path class="cls-2" d="M17.49,32.66a9,9,0,1,1-9,9A9,9,0,0,1,17.49,32.66Zm0,16a7,7,0,1,0-7-7A7,7,0,0,0,17.49,48.66Z"/><path class="cls-3" d="M81.92,83.42H1.5A1.5,1.5,0,0,1,0,81.92V1.5A1.5,1.5,0,0,1,1.5,0H81.92a1.5,1.5,0,0,1,1.5,1.5V81.92A1.5,1.5,0,0,1,81.92,83.42ZM3,80.42H80.42V3H3Z"/></g></g></svg>