<svg xmlns="http://www.w3.org/2000/svg" viewBox="0 0 83.42 83.42"><defs><style>.cls-1{fill:#93dbd4;}.cls-2{fill:#f5d492;}.cls-3{fill:#fff;}</style></defs><title>28_5</title><g id="Layer_2" data-name="Layer 2"><g id="Layer_2-2" data-name="Layer 2"><path class="cls-1" d="M41.71,32.65a9,9,0,1,0,9,9A9,9,0,0,0,41.71,32.65Zm-2.9,2.64-3.46,3.46A7,7,0,0,1,38.81,35.29Zm-4,5,5.48-5.48a6.95,6.95,0,0,1,4.3.5l-9.27,9.27a6.85,6.85,0,0,1-.51-4.29Zm.86,5,9.58-9.58A7,7,0,0,1,47.7,38l-9.6,9.6A7.07,7.07,0,0,1,35.71,45.23ZM38.77,48l9.28-9.28a6.88,6.88,0,0,1,.66,2.94A6.45,6.45,0,0,1,48.58,43l-5.53,5.54a7.42,7.42,0,0,1-1.34.13A6.92,6.92,0,0,1,38.77,48Zm5.77.06,3.57-3.58A7,7,0,0,1,44.54,48.05Z"/><path class="cls-1" d="M17.49,50.77a9,9,0,1,1,9-9A9,9,0,0,1,17.49,50.77Zm0-16a7,7,0,1,0,7,7A7,7,0,0,0,17.49,34.77Z"/><path class="cls-2" d="M65.94,50.77a9,9,0,1,1,9-9A9,9,0,0,1,65.94,50.77Zm0-16a7,7,0,1,0,7,7A7,7,0,0,0,65.94,34.77Z"/><path class="cls-3" d="M81.92,83.42H1.5A1.5,1.5,0,0,1,0,81.92V1.5A1.5,1.5,0,0,1,1.5,0H81.92a1.5,1.5,0,0,1,1.5,1.5V81.92A1.5,1.5,0,0,1,81.92,83.42ZM3,80.42H80.42V3H3Z"/></g></g></svg>