<svg xmlns="http://www.w3.org/2000/svg" viewBox="0 0 83.42 83.42"><defs><style>.cls-1{fill:#fff;}.cls-2{fill:#f5d492;}.cls-3{fill:#93dbd4;}</style></defs><title>29_2</title><g id="Layer_2" data-name="Layer 2"><g id="Layer_2-2" data-name="Layer 2"><path class="cls-1" d="M81.92,83.42H1.5A1.5,1.5,0,0,1,0,81.92V1.5A1.5,1.5,0,0,1,1.5,0H81.92a1.5,1.5,0,0,1,1.5,1.5V81.92A1.5,1.5,0,0,1,81.92,83.42ZM3,80.42H80.42V3H3Z"/><path class="cls-2" d="M33.67,20.76l7-7a.93.93,0,0,1,1.31,0l7,7a.92.92,0,0,1-.65,1.57h-2a.93.93,0,0,0-.93.93v12.3a.92.92,0,0,1-.92.92H38.18a.92.92,0,0,1-.92-.92V23.26a.93.93,0,0,0-.92-.93h-2A.92.92,0,0,1,33.67,20.76Z"/><path class="cls-3" d="M29,50.22l7,7a.92.92,0,0,1,0,1.3l-7,7a.92.92,0,0,1-1.57-.65v-2a.92.92,0,0,0-.92-.92H14.19a.93.93,0,0,1-.93-.93v-6.3a.93.93,0,0,1,.93-.93h12.3a.92.92,0,0,0,.92-.92v-2A.92.92,0,0,1,29,50.22Z"/><path class="cls-3" d="M54.94,50.22l-7,7a.92.92,0,0,0,0,1.3l7,7a.92.92,0,0,0,1.57-.65v-2a.92.92,0,0,1,.92-.92H69.74a.93.93,0,0,0,.92-.93v-6.3a.93.93,0,0,0-.92-.93H57.43a.92.92,0,0,1-.92-.92v-2A.92.92,0,0,0,54.94,50.22Z"/></g></g></svg>