<svg xmlns="http://www.w3.org/2000/svg" viewBox="0 0 83.42 83.42"><defs><style>.cls-1{fill:#fff;}.cls-2{fill:#f5d492;}.cls-3{fill:#93dbd4;}</style></defs><title>29_3</title><g id="Layer_2" data-name="Layer 2"><g id="Layer_2-2" data-name="Layer 2"><path class="cls-1" d="M81.92,83.42H1.5A1.5,1.5,0,0,1,0,81.92V1.5A1.5,1.5,0,0,1,1.5,0H81.92a1.5,1.5,0,0,1,1.5,1.5V81.92A1.5,1.5,0,0,1,81.92,83.42ZM3,80.42H80.42V3H3Z"/><path class="cls-2" d="M50.14,29.2l-7,7a.92.92,0,0,1-1.3,0l-7-7a.93.93,0,0,1,.65-1.58h2a.92.92,0,0,0,.92-.92V14.4a.92.92,0,0,1,.92-.92h6.31a.93.93,0,0,1,.93.92V26.7a.92.92,0,0,0,.92.92h2A.93.93,0,0,1,50.14,29.2Z"/><path class="cls-3" d="M14.24,62.1l7,7a.93.93,0,0,0,1.31,0l7-7a.92.92,0,0,0-.65-1.57h-2A.93.93,0,0,1,26,59.6V47.3a.92.92,0,0,0-.92-.92H18.75a.92.92,0,0,0-.92.92V59.6a.93.93,0,0,1-.92.93h-2A.92.92,0,0,0,14.24,62.1Z"/><path class="cls-3" d="M56.64,62.1l7,7a.92.92,0,0,0,1.3,0l7-7a.92.92,0,0,0-.65-1.57h-2a.93.93,0,0,1-.92-.93V47.3a.93.93,0,0,0-.93-.92h-6.3a.93.93,0,0,0-.93.92V59.6a.93.93,0,0,1-.92.93h-2A.92.92,0,0,0,56.64,62.1Z"/></g></g></svg>