<svg xmlns="http://www.w3.org/2000/svg" viewBox="0 0 83.42 83.42"><defs><style>.cls-1{fill:#fff;}.cls-2{fill:#f5d492;}.cls-3{fill:#93dbd4;}</style></defs><title>29_4</title><g id="Layer_2" data-name="Layer 2"><g id="Layer_2-2" data-name="Layer 2"><path class="cls-1" d="M81.92,83.42H1.5A1.5,1.5,0,0,1,0,81.92V1.5A1.5,1.5,0,0,1,1.5,0H81.92a1.5,1.5,0,0,1,1.5,1.5V81.92A1.5,1.5,0,0,1,81.92,83.42ZM3,80.42H80.42V3H3Z"/><path class="cls-2" d="M33.43,29.2l7,7a.92.92,0,0,0,1.3,0l7-7a.93.93,0,0,0-.65-1.58h-2a.92.92,0,0,1-.92-.92V14.4a.93.93,0,0,0-.93-.92H37.93a.92.92,0,0,0-.92.92V26.7a.92.92,0,0,1-.92.92h-2A.93.93,0,0,0,33.43,29.2Z"/><path class="cls-3" d="M28.73,50.22l7,7a.92.92,0,0,1,0,1.3l-7,7a.92.92,0,0,1-1.57-.65v-2a.92.92,0,0,0-.92-.92H13.94A.93.93,0,0,1,13,61v-6.3a.93.93,0,0,1,.93-.93h12.3a.92.92,0,0,0,.92-.92v-2A.92.92,0,0,1,28.73,50.22Z"/><path class="cls-3" d="M54.69,50.22l-7,7a.92.92,0,0,0,0,1.3l7,7a.92.92,0,0,0,1.57-.65v-2a.93.93,0,0,1,.93-.92h12.3a.93.93,0,0,0,.92-.93v-6.3a.93.93,0,0,0-.92-.93H57.19a.93.93,0,0,1-.93-.92v-2A.92.92,0,0,0,54.69,50.22Z"/></g></g></svg>