<svg xmlns="http://www.w3.org/2000/svg" viewBox="0 0 83.42 83.42"><defs><style>.cls-1{fill:#fff;}.cls-2{fill:#f5d492;}</style></defs><title>1_6</title><g id="Layer_2" data-name="Layer 2"><g id="Layer_2-2" data-name="Layer 2"><path class="cls-1" d="M81.92,83.42H1.5A1.5,1.5,0,0,1,0,81.92V1.5A1.5,1.5,0,0,1,1.5,0H81.92a1.5,1.5,0,0,1,1.5,1.5V81.92A1.5,1.5,0,0,1,81.92,83.42ZM3,80.42H80.42V3H3Z"/><path class="cls-2" d="M69.12,23.36,45.28,15.59h0l-.19-.05h-.4l-.25.05h0l-.29.13L14,33.06a1.56,1.56,0,0,0-.7.91,1.51,1.51,0,0,0,.15,1.14L32,67.16a1.5,1.5,0,0,0,1.3.75A1.47,1.47,0,0,0,34,67.7l30-17.34a1.14,1.14,0,0,0,.25-.18s0,0,0,0l.17-.18,0-.08a1.74,1.74,0,0,0,.11-.18.49.49,0,0,1,0-.11c0-.06,0-.11.06-.18a0,0,0,0,1,0,0L70.12,25.1A1.5,1.5,0,0,0,69.12,23.36ZM59.9,46.16l1.36,2.35-2.35,1.36Zm-3,4.89-2.59,1.49,2.95-11,1.5,2.59Zm-4.62,2.67-2.6,1.49L54.56,36.9l1.5,2.6Zm-4.63,2.67L45,57.89l6.86-25.61,1.5,2.59ZM43,59.06l-2.59,1.5,8.82-32.91,1.49,2.59Zm-4.62,2.67-2.59,1.5L46.55,23,48,25.62ZM20.79,32.62l2.59-1.5L20.61,41.47l-1.5-2.59ZM25.42,30,28,28.45,23.28,46.1l-1.5-2.59ZM30,27.28l2.59-1.5L26,50.73l-1.5-2.59Zm4.63-2.67,2.59-1.5L28.62,55.35l-1.49-2.59Zm4.63-2.67,2.59-1.5L31.29,60,29.8,57.39ZM18.76,33.79l-.82,3.06-1.12-1.94ZM32.47,62,43.92,19.26l.34-.19L45.37,21,33.77,64.28ZM62.68,45,48.07,19.66,66.9,25.79Z"/></g></g></svg>