<svg xmlns="http://www.w3.org/2000/svg" viewBox="0 0 83.42 83.42"><defs><style>.cls-1{fill:#fff;}.cls-2{fill:#93dbd4;}</style></defs><title>7_1</title><g id="Layer_2" data-name="Layer 2"><g id="Layer_2-2" data-name="Layer 2"><path class="cls-1" d="M81.92,83.42H1.5A1.5,1.5,0,0,1,0,81.92V1.5A1.5,1.5,0,0,1,1.5,0H81.92a1.5,1.5,0,0,1,1.5,1.5V81.92A1.5,1.5,0,0,1,81.92,83.42ZM3,80.42H80.42V3H3Z"/><path class="cls-2" d="M72.76,57.6l-.18-.15a1.51,1.51,0,0,0-2.1.32l-2.77,3.8.23-44.33v0a.59.59,0,0,0,0-.13.68.68,0,0,0,0-.15,1.25,1.25,0,0,0-.07-.26v0a1.42,1.42,0,0,0-.5-.64L59.9,10.57a1.5,1.5,0,0,0-1.95.15l-.15.17a1.5,1.5,0,0,0,.33,2.1l3.79,2.77-44.33-.23a1.46,1.46,0,0,0-.85.27,1.43,1.43,0,0,0-.79.55l-5.43,7.42a1.5,1.5,0,0,0,.15,1.95l.18.15a1.49,1.49,0,0,0,2.09-.33l2.78-3.79-.23,44.33a1.42,1.42,0,0,0,.16.68,1.53,1.53,0,0,0,.51.67l7.42,5.43a1.52,1.52,0,0,0,2-.15l.15-.18a1.5,1.5,0,0,0-.33-2.1l-3.79-2.77,44.33.23A1.53,1.53,0,0,0,67,67.45l.06-.08a1.46,1.46,0,0,0,.46-.4l5.42-7.43A1.49,1.49,0,0,0,72.76,57.6ZM25.83,59.75a1.5,1.5,0,0,0-2.1-.32L18.5,63.28l.22-41.4,2.81,3.82a1.5,1.5,0,1,0,2.41-1.78l-4-5.37,41.8.21L58,21.58A1.5,1.5,0,1,0,59.75,24l5.17-3.81-.21,41.26L61.9,57.62a1.5,1.5,0,1,0-2.42,1.78l4,5.48-41.82-.22,3.82-2.81A1.51,1.51,0,0,0,25.83,59.75Z"/></g></g></svg>