<svg xmlns="http://www.w3.org/2000/svg" viewBox="0 0 83.42 83.42"><defs><style>.cls-1{fill:#fff;}.cls-2{fill:#93dbd4;}</style></defs><title>7_2</title><g id="Layer_2" data-name="Layer 2"><g id="Layer_2-2" data-name="Layer 2"><path class="cls-1" d="M81.92,83.42H1.5A1.5,1.5,0,0,1,0,81.92V1.5A1.5,1.5,0,0,1,1.5,0H81.92a1.5,1.5,0,0,1,1.5,1.5V81.92A1.5,1.5,0,0,1,81.92,83.42ZM3,80.42H80.42V3H3Z"/><path class="cls-2" d="M66.9,16a1.51,1.51,0,0,0-1.07-.44l-44.33.23L25.3,13a1.5,1.5,0,0,0,.32-2.1.8.8,0,0,0-.15-.17,1.49,1.49,0,0,0-1.94-.15L16.1,16a1.4,1.4,0,0,0-.49.64v0a1.83,1.83,0,0,0-.08.25s0,.1,0,.15,0,.09,0,.13v0l.23,44.33-2.78-3.8a1.5,1.5,0,0,0-2.09-.32l-.18.15a1.49,1.49,0,0,0-.15,1.94L16,67a1.48,1.48,0,0,0,1.2.62A1.54,1.54,0,0,0,18.37,67l5.57-7.58a1.5,1.5,0,1,0-2.41-1.78l-2.81,3.82L18.5,20.18,23.67,24a1.5,1.5,0,1,0,1.78-2.41l-3.82-2.82,44.22-.23A1.48,1.48,0,0,0,67.34,17,1.51,1.51,0,0,0,66.9,16Z"/></g></g></svg>