<svg xmlns="http://www.w3.org/2000/svg" viewBox="0 0 83.42 83.42"><defs><style>.cls-1{fill:#fff;}.cls-2{fill:#93dbd4;}</style></defs><title>7_3</title><g id="Layer_2" data-name="Layer 2"><g id="Layer_2-2" data-name="Layer 2"><path class="cls-1" d="M81.92,83.42H1.5A1.5,1.5,0,0,1,0,81.92V1.5A1.5,1.5,0,0,1,1.5,0H81.92a1.5,1.5,0,0,1,1.5,1.5V81.92A1.5,1.5,0,0,1,81.92,83.42ZM3,80.42H80.42V3H3Z"/><path class="cls-2" d="M67.27,65,59.7,59.43a1.5,1.5,0,0,0-1.78,2.42l3.82,2.81-41.83.22,4-5.48a1.5,1.5,0,1,0-2.41-1.78l-2.81,3.82-.23-44.22a1.51,1.51,0,0,0-2.57-1,1.46,1.46,0,0,0-.43,1.07l.23,44.33-2.78-3.8a1.5,1.5,0,0,0-2.09-.32l-.18.15a1.49,1.49,0,0,0-.15,1.94L16,67a1.43,1.43,0,0,0,.45.4s0,.06.07.08a1.51,1.51,0,0,0,1.06.44l44.34-.23-3.8,2.77a1.5,1.5,0,0,0-.32,2.1,1.19,1.19,0,0,0,.15.18,1.5,1.5,0,0,0,1.94.15l7.43-5.43a1.51,1.51,0,0,0,.61-1.21A1.48,1.48,0,0,0,67.27,65Z"/></g></g></svg>