<svg xmlns="http://www.w3.org/2000/svg" viewBox="0 0 83.42 83.42"><defs><style>.cls-1{fill:#fff;}.cls-2{fill:#93dbd4;}</style></defs><title>7_6</title><g id="Layer_2" data-name="Layer 2"><g id="Layer_2-2" data-name="Layer 2"><path class="cls-1" d="M81.92,83.42H1.5A1.5,1.5,0,0,1,0,81.92V1.5A1.5,1.5,0,0,1,1.5,0H81.92a1.5,1.5,0,0,1,1.5,1.5V81.92A1.5,1.5,0,0,1,81.92,83.42ZM3,80.42H80.42V3H3Z"/><path class="cls-2" d="M72.9,23.77l-5.42-7.42a1.51,1.51,0,0,0-.79-.55,1.49,1.49,0,0,0-.86-.27l-44.33.23L25.3,13a1.5,1.5,0,0,0,.32-2.1.8.8,0,0,0-.15-.17,1.49,1.49,0,0,0-1.94-.15L16.1,16a1.4,1.4,0,0,0-.49.64v0a2.58,2.58,0,0,0-.08.26s0,.1,0,.15,0,.09,0,.13v0l.23,44.33-2.78-3.8a1.5,1.5,0,0,0-2.09-.32l-.18.15a1.49,1.49,0,0,0-.15,1.94L16,67a1.43,1.43,0,0,0,.45.4s0,.06.07.08a1.51,1.51,0,0,0,1.06.44l44.34-.23-3.8,2.77a1.5,1.5,0,0,0-.32,2.1,1.19,1.19,0,0,0,.15.18,1.5,1.5,0,0,0,1.94.15l7.43-5.43a1.5,1.5,0,0,0,.5-.67,1.43,1.43,0,0,0,.17-.68l-.23-44.33,2.77,3.79a1.5,1.5,0,0,0,2.1.33l.18-.15A1.5,1.5,0,0,0,72.9,23.77Zm-15,38.08,3.82,2.81-41.83.22,4-5.48a1.5,1.5,0,1,0-2.41-1.78l-2.81,3.82L18.5,20.18,23.67,24a1.5,1.5,0,1,0,1.78-2.41l-3.82-2.82,41.81-.21-4,5.37A1.5,1.5,0,1,0,61.9,25.7l2.81-3.82.21,41.4L59.7,59.43a1.5,1.5,0,0,0-1.78,2.42Z"/></g></g></svg>