<svg xmlns="http://www.w3.org/2000/svg" viewBox="0 0 83.42 83.42"><defs><style>.cls-1{fill:#fff;}.cls-2{fill:#93dbd4;}</style></defs><title>8_6</title><g id="Layer_2" data-name="Layer 2"><g id="Layer_2-2" data-name="Layer 2"><path class="cls-1" d="M81.92,83.42H1.5A1.5,1.5,0,0,1,0,81.92V1.5A1.5,1.5,0,0,1,1.5,0H81.92a1.5,1.5,0,0,1,1.5,1.5V81.92A1.5,1.5,0,0,1,81.92,83.42ZM3,80.42H80.42V3H3Z"/><path class="cls-2" d="M59.91,22.09H23.52a1.43,1.43,0,0,0-1.43,1.43V59.91a1.42,1.42,0,0,0,1.43,1.42H59.91a1.41,1.41,0,0,0,1.42-1.42V23.52A1.42,1.42,0,0,0,59.91,22.09Zm-35,2.85h5.78l-5.78,5.78Zm0,6.88,6.88-6.88H37L24.94,37Zm0,6.29L38.11,24.94H43.3L24.94,43.3Zm0,6.29L44.4,24.94h5.19L24.94,49.59Zm0,6.29L50.69,24.94h5.19L24.94,55.88Zm33.54,7.79h-4l4-4Zm0-5.13-5.13,5.13H48.16L58.48,48.16Zm0-6.29L47.06,58.48H41.87L58.48,41.87Zm0-6.29L40.77,58.48H35.58l22.9-22.9Zm0-6.29-24,24H29.29L58.48,29.29Zm0-6.29L28.19,58.48H24.94V57l32-32h1.5Z"/></g></g></svg>