<svg xmlns="http://www.w3.org/2000/svg" viewBox="0 0 83.42 83.42"><defs><style>.cls-1{fill:#fff;}.cls-2{fill:#f5d492;}</style></defs><title>9_4</title><g id="Layer_2" data-name="Layer 2"><g id="Layer_2-2" data-name="Layer 2"><path class="cls-1" d="M81.92,83.42H1.5A1.5,1.5,0,0,1,0,81.92V1.5A1.5,1.5,0,0,1,1.5,0H81.92a1.5,1.5,0,0,1,1.5,1.5V81.92A1.5,1.5,0,0,1,81.92,83.42ZM3,80.42H80.42V3H3Z"/><path class="cls-2" d="M71.47,75.1H64a3.58,3.58,0,0,1-3.58-3.58V11.9A3.58,3.58,0,0,1,64,8.32h7.46a3.58,3.58,0,0,1,3.58,3.58V71.52A3.58,3.58,0,0,1,71.47,75.1ZM64,11.32a.59.59,0,0,0-.58.58V71.52a.58.58,0,0,0,.58.58h7.46a.58.58,0,0,0,.58-.58V11.9a.59.59,0,0,0-.58-.58Z"/></g></g></svg>