<svg xmlns="http://www.w3.org/2000/svg" viewBox="0 0 403.43 83.47"><defs><style>.cls-1{fill:#fff;}.cls-2{fill:#f5d492;}.cls-3{fill:#93dbd4;}</style></defs><title>14</title><g id="Layer_2" data-name="Layer 2"><g id="Layer_2-2" data-name="Layer 2"><path class="cls-1" d="M352.92,35.75A6.31,6.31,0,0,1,354,32.37a8.18,8.18,0,0,1,3.13-2.84,9.83,9.83,0,0,1,4.79-1.12,10.2,10.2,0,0,1,4.5.94,7.25,7.25,0,0,1,3,2.55,6.27,6.27,0,0,1,1.06,3.52,5.48,5.48,0,0,1-.6,2.62A8,8,0,0,1,368.45,40c-.55.55-1.55,1.46-3,2.75a10.78,10.78,0,0,0-1,1,4.19,4.19,0,0,0-.54.76,3.57,3.57,0,0,0-.27.68c-.06.23-.16.63-.29,1.21a2,2,0,0,1-2.09,1.82,2.18,2.18,0,0,1-1.54-.59,2.34,2.34,0,0,1-.62-1.78,6.66,6.66,0,0,1,.45-2.56,6.58,6.58,0,0,1,1.22-1.9,27.24,27.24,0,0,1,2-1.94c.75-.65,1.29-1.15,1.62-1.48a5.1,5.1,0,0,0,.85-1.12,2.81,2.81,0,0,0,.34-1.34,3.11,3.11,0,0,0-1.05-2.37,3.84,3.84,0,0,0-2.7-1,3.73,3.73,0,0,0-2.84,1A7.77,7.77,0,0,0,357.53,36c-.4,1.33-1.15,2-2.27,2a2.24,2.24,0,0,1-1.66-.69A2.16,2.16,0,0,1,352.92,35.75ZM361.5,55a2.73,2.73,0,0,1-1.87-.7,2.44,2.44,0,0,1-.8-1.94,2.5,2.5,0,0,1,.77-1.86,2.6,2.6,0,0,1,1.9-.76,2.58,2.58,0,0,1,2.62,2.62,2.46,2.46,0,0,1-.79,1.94A2.72,2.72,0,0,1,361.5,55Z"/><path class="cls-1" d="M81.92,83.47H1.5A1.5,1.5,0,0,1,0,82V1.55A1.5,1.5,0,0,1,1.5.05H81.92a1.5,1.5,0,0,1,1.5,1.5V82A1.5,1.5,0,0,1,81.92,83.47ZM3,80.47H80.42V3.05H3Z"/><path class="cls-1" d="M188.43,83.47H108a1.5,1.5,0,0,1-1.5-1.5V1.55A1.5,1.5,0,0,1,108,.05h80.42a1.5,1.5,0,0,1,1.5,1.5V82A1.5,1.5,0,0,1,188.43,83.47Zm-78.92-3h77.42V3.05H109.51Z"/><path class="cls-1" d="M294.94,83.47H214.52A1.5,1.5,0,0,1,213,82V1.55a1.5,1.5,0,0,1,1.5-1.5h80.42a1.5,1.5,0,0,1,1.5,1.5V82A1.5,1.5,0,0,1,294.94,83.47Zm-78.92-3h77.42V3.05H216Z"/><path class="cls-1" d="M401.93,83.42h-6a1.5,1.5,0,0,1,0-3h4.5v-4.5a1.5,1.5,0,0,1,3,0v6A1.5,1.5,0,0,1,401.93,83.42Z"/><path class="cls-1" d="M386.92,83.42h-10.8a1.5,1.5,0,0,1,0-3h10.8a1.5,1.5,0,0,1,0,3Zm-19.8,0H356.31a1.5,1.5,0,0,1,0-3h10.81a1.5,1.5,0,0,1,0,3Zm-19.81,0h-10.8a1.5,1.5,0,0,1,0-3h10.8a1.5,1.5,0,0,1,0,3Z"/><path class="cls-1" d="M327.5,83.42h-6a1.5,1.5,0,0,1-1.5-1.5v-6a1.5,1.5,0,0,1,3,0v4.5h4.5a1.5,1.5,0,0,1,0,3Z"/><path class="cls-1" d="M321.5,68.42a1.5,1.5,0,0,1-1.5-1.5V56.12a1.5,1.5,0,0,1,3,0v10.8A1.5,1.5,0,0,1,321.5,68.42Zm0-19.81a1.5,1.5,0,0,1-1.5-1.5V36.31a1.5,1.5,0,0,1,3,0v10.8A1.5,1.5,0,0,1,321.5,48.61Zm0-19.8a1.5,1.5,0,0,1-1.5-1.5V16.5a1.5,1.5,0,0,1,3,0V27.31A1.5,1.5,0,0,1,321.5,28.81Z"/><path class="cls-1" d="M321.5,9A1.5,1.5,0,0,1,320,7.5v-6A1.5,1.5,0,0,1,321.5,0h6a1.5,1.5,0,0,1,0,3H323V7.5A1.5,1.5,0,0,1,321.5,9Z"/><path class="cls-1" d="M386.92,3h-10.8a1.5,1.5,0,0,1,0-3h10.8a1.5,1.5,0,0,1,0,3Zm-19.8,0H356.31a1.5,1.5,0,0,1,0-3h10.81a1.5,1.5,0,0,1,0,3ZM347.31,3h-10.8a1.5,1.5,0,0,1,0-3h10.8a1.5,1.5,0,0,1,0,3Z"/><path class="cls-1" d="M401.93,9a1.5,1.5,0,0,1-1.5-1.5V3h-4.5a1.5,1.5,0,0,1,0-3h6a1.5,1.5,0,0,1,1.5,1.5v6A1.5,1.5,0,0,1,401.93,9Z"/><path class="cls-1" d="M401.93,68.42a1.5,1.5,0,0,1-1.5-1.5V56.12a1.5,1.5,0,0,1,3,0v10.8A1.5,1.5,0,0,1,401.93,68.42Zm0-19.81a1.5,1.5,0,0,1-1.5-1.5V36.31a1.5,1.5,0,0,1,3,0v10.8A1.5,1.5,0,0,1,401.93,48.61Zm0-19.8a1.5,1.5,0,0,1-1.5-1.5V16.5a1.5,1.5,0,0,1,3,0V27.31A1.5,1.5,0,0,1,401.93,28.81Z"/><path class="cls-2" d="M41.71,10.26a31.5,31.5,0,1,0,31.5,31.5A31.53,31.53,0,0,0,41.71,10.26Zm23.22,15a29.28,29.28,0,0,1,2.52,4.26l-38,38A28.46,28.46,0,0,1,25.21,65Zm3.46,6.48a28.1,28.1,0,0,1,1.43,5.35L37,69.87a28.1,28.1,0,0,1-5.35-1.43ZM47.25,13.81a27.74,27.74,0,0,1,5.21,1.56L15.32,52.51a27.74,27.74,0,0,1-1.56-5.21Zm7.38,2.56A28.92,28.92,0,0,1,58.81,19L18.92,58.86a28.92,28.92,0,0,1-2.6-4.18Zm-10.14-3L13.35,44.54c-.09-.91-.14-1.84-.14-2.78a28.62,28.62,0,0,1,.31-4.17l24-24a28.86,28.86,0,0,1,4.18-.31C42.65,13.26,43.58,13.31,44.49,13.4Zm-11,1.08-19,19A28.64,28.64,0,0,1,33.47,14.48ZM20.35,60.59,60.54,20.4a27.37,27.37,0,0,1,3,3.08L23.43,63.6A27.37,27.37,0,0,1,20.35,60.59ZM39.88,70.2,70.15,39.92c0,.61.06,1.22.06,1.84a28.36,28.36,0,0,1-.52,5.41L47.12,69.74a28.36,28.36,0,0,1-5.41.52Q40.78,70.26,39.88,70.2Zm11.6-1.66,17-17A28.66,28.66,0,0,1,51.48,68.54Z"/><path class="cls-3" d="M148.22,17.71a24,24,0,1,0,24,24A24,24,0,0,0,148.22,17.71Zm17,11.67a21,21,0,0,1,1.71,2.75L138.64,60.38a22.1,22.1,0,0,1-2.75-1.7ZM167.72,34a20.7,20.7,0,0,1,1,3.41L143.88,62.25a19.78,19.78,0,0,1-3.41-1ZM152.56,21.17a21.39,21.39,0,0,1,3.41,1L128.72,49.46a20.58,20.58,0,0,1-1-3.4Zm5.24,1.88a20,20,0,0,1,2.75,1.7L131.26,54a21,21,0,0,1-1.71-2.75Zm-7.54-2.24L127.32,43.75c-.06-.67-.1-1.35-.1-2a20.09,20.09,0,0,1,.16-2.47l18.37-18.37a20.09,20.09,0,0,1,2.47-.16C148.91,20.71,149.59,20.75,150.26,20.81Zm-7.85.74L128.05,35.91A21.06,21.06,0,0,1,142.41,21.55Zm-10,34L162,25.93a20.35,20.35,0,0,1,2,2L134.41,57.5A21.65,21.65,0,0,1,132.44,55.52Zm13.74,7.09,22.94-22.93c.06.67.1,1.34.1,2a20.09,20.09,0,0,1-.16,2.47L150.69,62.55a20.09,20.09,0,0,1-2.47.16C147.53,62.71,146.85,62.67,146.18,62.61Zm7.85-.73,14.36-14.36A21.1,21.1,0,0,1,154,61.88Z"/><path class="cls-2" d="M254.73,26.26a15.5,15.5,0,1,0,15.5,15.5A15.52,15.52,0,0,0,254.73,26.26Zm11.81,11.46a11.76,11.76,0,0,1,.64,3.14L253.83,54.22a12.68,12.68,0,0,1-3.15-.64ZM265.79,36,248.92,52.82a12.77,12.77,0,0,1-2.26-1.52l17.6-17.6A12.75,12.75,0,0,1,265.79,36ZM244,48.12,261.09,31A12.72,12.72,0,0,1,263,32.43L245.4,50.05A12.72,12.72,0,0,1,244,48.12Zm12.43-18.73a12.55,12.55,0,0,1,3,.79L243.15,46.44a12,12,0,0,1-.79-3ZM254,29.3,242.27,41A12.49,12.49,0,0,1,254,29.3Zm2.44,24.83L267.1,43.46A12.52,12.52,0,0,1,256.43,54.13Z"/></g></g></svg>