<svg xmlns="http://www.w3.org/2000/svg" viewBox="0 0 403.43 83.47"><defs><style>.cls-1{fill:#fff;}.cls-2{fill:#f5d492;}.cls-3{fill:#93dbd4;}</style></defs><title>16</title><g id="Layer_2" data-name="Layer 2"><g id="Layer_2-2" data-name="Layer 2"><path class="cls-1" d="M352.92,35.75A6.31,6.31,0,0,1,354,32.37a8.18,8.18,0,0,1,3.13-2.84,9.83,9.83,0,0,1,4.79-1.12,10.2,10.2,0,0,1,4.5.94,7.25,7.25,0,0,1,3,2.55,6.27,6.27,0,0,1,1.06,3.52,5.48,5.48,0,0,1-.6,2.62A8.23,8.23,0,0,1,368.46,40c-.56.55-1.56,1.46-3,2.75a10.78,10.78,0,0,0-1,1,4.19,4.19,0,0,0-.54.76,4.37,4.37,0,0,0-.27.68c-.06.23-.16.63-.29,1.21a2,2,0,0,1-2.09,1.82,2.18,2.18,0,0,1-1.54-.59,2.38,2.38,0,0,1-.62-1.78,6.66,6.66,0,0,1,.45-2.56,6.58,6.58,0,0,1,1.22-1.9,27.24,27.24,0,0,1,2-1.94c.75-.65,1.29-1.15,1.62-1.48a5.1,5.1,0,0,0,.85-1.12,2.7,2.7,0,0,0,.34-1.34,3.11,3.11,0,0,0-1.05-2.37,3.82,3.82,0,0,0-2.7-1,3.73,3.73,0,0,0-2.84,1A7.77,7.77,0,0,0,357.53,36c-.4,1.33-1.15,2-2.27,2a2.24,2.24,0,0,1-1.66-.69A2.16,2.16,0,0,1,352.92,35.75ZM361.5,55a2.73,2.73,0,0,1-1.87-.7,2.44,2.44,0,0,1-.8-1.94,2.5,2.5,0,0,1,.77-1.86,2.6,2.6,0,0,1,1.9-.76,2.58,2.58,0,0,1,2.62,2.62,2.46,2.46,0,0,1-.79,1.94A2.72,2.72,0,0,1,361.5,55Z"/><path class="cls-1" d="M81.92,83.47H1.5A1.5,1.5,0,0,1,0,82V1.55A1.5,1.5,0,0,1,1.5.05H81.92a1.5,1.5,0,0,1,1.5,1.5V82A1.5,1.5,0,0,1,81.92,83.47ZM3,80.47H80.42V3.05H3Z"/><path class="cls-1" d="M188.43,83.47H108a1.5,1.5,0,0,1-1.5-1.5V1.55A1.5,1.5,0,0,1,108,.05h80.42a1.5,1.5,0,0,1,1.5,1.5V82A1.5,1.5,0,0,1,188.43,83.47Zm-78.92-3h77.42V3.05H109.51Z"/><path class="cls-1" d="M294.94,83.47H214.52A1.5,1.5,0,0,1,213,82V1.55a1.5,1.5,0,0,1,1.5-1.5h80.42a1.5,1.5,0,0,1,1.5,1.5V82A1.5,1.5,0,0,1,294.94,83.47Zm-78.92-3h77.42V3.05H216Z"/><path class="cls-1" d="M401.93,83.42h-6a1.5,1.5,0,0,1,0-3h4.5v-4.5a1.5,1.5,0,0,1,3,0v6A1.5,1.5,0,0,1,401.93,83.42Z"/><path class="cls-1" d="M386.92,83.42h-10.8a1.5,1.5,0,0,1,0-3h10.8a1.5,1.5,0,0,1,0,3Zm-19.8,0H356.31a1.5,1.5,0,0,1,0-3h10.81a1.5,1.5,0,0,1,0,3Zm-19.81,0h-10.8a1.5,1.5,0,0,1,0-3h10.8a1.5,1.5,0,0,1,0,3Z"/><path class="cls-1" d="M327.5,83.42h-6a1.5,1.5,0,0,1-1.5-1.5v-6a1.5,1.5,0,0,1,3,0v4.5h4.5a1.5,1.5,0,0,1,0,3Z"/><path class="cls-1" d="M321.5,68.42a1.5,1.5,0,0,1-1.5-1.5V56.12a1.5,1.5,0,0,1,3,0v10.8A1.5,1.5,0,0,1,321.5,68.42Zm0-19.81a1.5,1.5,0,0,1-1.5-1.5V36.31a1.5,1.5,0,0,1,3,0v10.8A1.5,1.5,0,0,1,321.5,48.61Zm0-19.8a1.5,1.5,0,0,1-1.5-1.5V16.5a1.5,1.5,0,0,1,3,0V27.31A1.5,1.5,0,0,1,321.5,28.81Z"/><path class="cls-1" d="M321.5,9A1.5,1.5,0,0,1,320,7.5v-6A1.5,1.5,0,0,1,321.5,0h6a1.5,1.5,0,0,1,0,3H323V7.5A1.5,1.5,0,0,1,321.5,9Z"/><path class="cls-1" d="M386.92,3h-10.8a1.5,1.5,0,0,1,0-3h10.8a1.5,1.5,0,0,1,0,3Zm-19.8,0H356.31a1.5,1.5,0,0,1,0-3h10.81a1.5,1.5,0,0,1,0,3ZM347.31,3h-10.8a1.5,1.5,0,0,1,0-3h10.8a1.5,1.5,0,0,1,0,3Z"/><path class="cls-1" d="M401.93,9a1.5,1.5,0,0,1-1.5-1.5V3h-4.5a1.5,1.5,0,0,1,0-3h6a1.5,1.5,0,0,1,1.5,1.5v6A1.5,1.5,0,0,1,401.93,9Z"/><path class="cls-1" d="M401.93,68.42a1.5,1.5,0,0,1-1.5-1.5V56.12a1.5,1.5,0,0,1,3,0v10.8A1.5,1.5,0,0,1,401.93,68.42Zm0-19.81a1.5,1.5,0,0,1-1.5-1.5V36.31a1.5,1.5,0,0,1,3,0v10.8A1.5,1.5,0,0,1,401.93,48.61Zm0-19.8a1.5,1.5,0,0,1-1.5-1.5V16.5a1.5,1.5,0,0,1,3,0V27.31A1.5,1.5,0,0,1,401.93,28.81Z"/><path class="cls-2" d="M148.22,17.76a24,24,0,1,0,24,24A24,24,0,0,0,148.22,17.76Zm17,11.67a21,21,0,0,1,1.71,2.75L138.64,60.43a22.1,22.1,0,0,1-2.75-1.7ZM167.72,34a20.7,20.7,0,0,1,1,3.41L143.88,62.3a19.78,19.78,0,0,1-3.41-1ZM152.56,21.22a21.39,21.39,0,0,1,3.41,1L128.72,49.51a20.58,20.58,0,0,1-1-3.4Zm5.24,1.88a20,20,0,0,1,2.75,1.7L131.26,54.09a21,21,0,0,1-1.71-2.75Zm-7.54-2.23L127.32,43.8c-.06-.67-.1-1.35-.1-2a20.22,20.22,0,0,1,.16-2.47l18.37-18.37a22.27,22.27,0,0,1,2.47-.16A19.61,19.61,0,0,1,150.26,20.87Zm-7.85.73L128.05,36A21.06,21.06,0,0,1,142.41,21.6Zm-10,34L162,26a20.35,20.35,0,0,1,2,2l-29.59,29.6A21.65,21.65,0,0,1,132.44,55.57Zm13.74,7.09,22.94-22.93c.06.67.1,1.34.1,2a20.09,20.09,0,0,1-.16,2.47L150.69,62.6a20.09,20.09,0,0,1-2.47.16C147.53,62.76,146.85,62.72,146.18,62.66Zm7.85-.73,14.36-14.36A21.1,21.1,0,0,1,154,61.93Z"/><path class="cls-3" d="M41.71,65.76a24,24,0,1,1,24-24A24,24,0,0,1,41.71,65.76Zm0-45a21,21,0,1,0,21,21A21,21,0,0,0,41.71,20.76Z"/><path class="cls-3" d="M277.27,57.58l-21-36.37a1.5,1.5,0,0,0-2.6,0l-21,36.37a1.5,1.5,0,0,0,1.3,2.25h42a1.5,1.5,0,0,0,1.3-.75A1.54,1.54,0,0,0,277.27,57.58Zm-9.21-.75h-4.45l6.19-6.18,1.63,2.82Zm-5.89-19.39,1.45,2.5L246.73,56.83h-3.95Zm2.42,4.19,1.63,2.82L253.84,56.83h-4.45Zm2.61,4.51L268.82,49,261,56.83H256.5Zm-25.77,2.27,6.08-10.54L257,28.42l1.62,2.82ZM255,25l1,1.77-4.85,4.85ZM237.79,54.7l21.78-21.77,1.63,2.82L240.12,56.83h-3.56Zm32.93,2.13,1.68-1.67,1,1.67Z"/></g></g></svg>