<svg xmlns="http://www.w3.org/2000/svg" viewBox="0 0 403.43 83.47"><defs><style>.cls-1{fill:#fff;}.cls-2{fill:#93dbd4;}.cls-3{fill:#f5d492;}</style></defs><title>18</title><g id="Layer_2" data-name="Layer 2"><g id="Layer_2-2" data-name="Layer 2"><path class="cls-1" d="M352.92,35.75A6.31,6.31,0,0,1,354,32.37a8.18,8.18,0,0,1,3.13-2.84,9.83,9.83,0,0,1,4.79-1.12,10.2,10.2,0,0,1,4.5.94,7.25,7.25,0,0,1,3,2.55,6.27,6.27,0,0,1,1.06,3.52,5.48,5.48,0,0,1-.6,2.62A8.23,8.23,0,0,1,368.46,40c-.56.55-1.56,1.46-3,2.75a10.78,10.78,0,0,0-1,1,4.19,4.19,0,0,0-.54.76,4.37,4.37,0,0,0-.27.68c-.06.23-.16.63-.29,1.21a2,2,0,0,1-2.09,1.82,2.18,2.18,0,0,1-1.54-.59,2.38,2.38,0,0,1-.62-1.78,6.66,6.66,0,0,1,.45-2.56,6.58,6.58,0,0,1,1.22-1.9,27.24,27.24,0,0,1,2-1.94c.75-.65,1.29-1.15,1.62-1.48a5.1,5.1,0,0,0,.85-1.12,2.7,2.7,0,0,0,.34-1.34,3.11,3.11,0,0,0-1.05-2.37,3.82,3.82,0,0,0-2.7-1,3.73,3.73,0,0,0-2.84,1A7.77,7.77,0,0,0,357.53,36c-.4,1.33-1.15,2-2.27,2a2.24,2.24,0,0,1-1.66-.69A2.16,2.16,0,0,1,352.92,35.75ZM361.5,55a2.73,2.73,0,0,1-1.87-.7,2.44,2.44,0,0,1-.8-1.94,2.5,2.5,0,0,1,.77-1.86,2.6,2.6,0,0,1,1.9-.76,2.58,2.58,0,0,1,2.62,2.62,2.46,2.46,0,0,1-.79,1.94A2.72,2.72,0,0,1,361.5,55Z"/><path class="cls-1" d="M81.92,83.47H1.5A1.5,1.5,0,0,1,0,82V1.55A1.5,1.5,0,0,1,1.5.05H81.92a1.5,1.5,0,0,1,1.5,1.5V82A1.5,1.5,0,0,1,81.92,83.47ZM3,80.47H80.42V3.05H3Z"/><path class="cls-1" d="M188.43,83.47H108a1.5,1.5,0,0,1-1.5-1.5V1.55A1.5,1.5,0,0,1,108,.05h80.42a1.5,1.5,0,0,1,1.5,1.5V82A1.5,1.5,0,0,1,188.43,83.47Zm-78.92-3h77.42V3.05H109.51Z"/><path class="cls-1" d="M294.94,83.47H214.52A1.5,1.5,0,0,1,213,82V1.55a1.5,1.5,0,0,1,1.5-1.5h80.42a1.5,1.5,0,0,1,1.5,1.5V82A1.5,1.5,0,0,1,294.94,83.47Zm-78.92-3h77.42V3.05H216Z"/><path class="cls-1" d="M401.93,83.42h-6a1.5,1.5,0,0,1,0-3h4.5v-4.5a1.5,1.5,0,0,1,3,0v6A1.5,1.5,0,0,1,401.93,83.42Z"/><path class="cls-1" d="M386.92,83.42h-10.8a1.5,1.5,0,0,1,0-3h10.8a1.5,1.5,0,0,1,0,3Zm-19.8,0H356.31a1.5,1.5,0,0,1,0-3h10.81a1.5,1.5,0,0,1,0,3Zm-19.81,0h-10.8a1.5,1.5,0,0,1,0-3h10.8a1.5,1.5,0,0,1,0,3Z"/><path class="cls-1" d="M327.5,83.42h-6a1.5,1.5,0,0,1-1.5-1.5v-6a1.5,1.5,0,0,1,3,0v4.5h4.5a1.5,1.5,0,0,1,0,3Z"/><path class="cls-1" d="M321.5,68.42a1.5,1.5,0,0,1-1.5-1.5V56.12a1.5,1.5,0,0,1,3,0v10.8A1.5,1.5,0,0,1,321.5,68.42Zm0-19.81a1.5,1.5,0,0,1-1.5-1.5V36.31a1.5,1.5,0,0,1,3,0v10.8A1.5,1.5,0,0,1,321.5,48.61Zm0-19.8a1.5,1.5,0,0,1-1.5-1.5V16.5a1.5,1.5,0,0,1,3,0V27.31A1.5,1.5,0,0,1,321.5,28.81Z"/><path class="cls-1" d="M321.5,9A1.5,1.5,0,0,1,320,7.5v-6A1.5,1.5,0,0,1,321.5,0h6a1.5,1.5,0,0,1,0,3H323V7.5A1.5,1.5,0,0,1,321.5,9Z"/><path class="cls-1" d="M386.92,3h-10.8a1.5,1.5,0,0,1,0-3h10.8a1.5,1.5,0,0,1,0,3Zm-19.8,0H356.31a1.5,1.5,0,0,1,0-3h10.81a1.5,1.5,0,0,1,0,3ZM347.31,3h-10.8a1.5,1.5,0,0,1,0-3h10.8a1.5,1.5,0,0,1,0,3Z"/><path class="cls-1" d="M401.93,9a1.5,1.5,0,0,1-1.5-1.5V3h-4.5a1.5,1.5,0,0,1,0-3h6a1.5,1.5,0,0,1,1.5,1.5v6A1.5,1.5,0,0,1,401.93,9Z"/><path class="cls-1" d="M401.93,68.42a1.5,1.5,0,0,1-1.5-1.5V56.12a1.5,1.5,0,0,1,3,0v10.8A1.5,1.5,0,0,1,401.93,68.42Zm0-19.81a1.5,1.5,0,0,1-1.5-1.5V36.31a1.5,1.5,0,0,1,3,0v10.8A1.5,1.5,0,0,1,401.93,48.61Zm0-19.8a1.5,1.5,0,0,1-1.5-1.5V16.5a1.5,1.5,0,0,1,3,0V27.31A1.5,1.5,0,0,1,401.93,28.81Z"/><path class="cls-2" d="M59.7,66.84h-36a1.5,1.5,0,0,1-1.4-2l18-47.15a1.5,1.5,0,0,1,2.8,0l18,47.15a1.51,1.51,0,0,1-1.4,2Zm-33.8-3H57.52L41.71,22.4Z"/><path class="cls-3" d="M148.22,66.84a1.5,1.5,0,0,1-1.4-1l-18-47.15a1.53,1.53,0,0,1,.17-1.39,1.51,1.51,0,0,1,1.24-.64h36a1.5,1.5,0,0,1,1.23.64,1.53,1.53,0,0,1,.17,1.39l-18,47.15A1.5,1.5,0,0,1,148.22,66.84ZM132.41,19.69l15.81,41.44L164,19.69Z"/><path class="cls-2" d="M247.15,60.12a3.5,3.5,0,0,1-2.45-1L229.81,44.21a3.46,3.46,0,0,1,0-4.89l14.89-14.9h0a3.46,3.46,0,0,1,5.91,2.45v4.27a.46.46,0,0,0,.46.46H277.2a3.46,3.46,0,0,1,3.46,3.46v13.4a3.46,3.46,0,0,1-3.46,3.46H251.07a.47.47,0,0,0-.46.46v4.27a3.49,3.49,0,0,1-3.46,3.47Zm-.32-33.58-14.9,14.9a.45.45,0,0,0-.13.32.45.45,0,0,0,.13.33L246.83,57a.43.43,0,0,0,.5.1.44.44,0,0,0,.28-.43V52.38a3.46,3.46,0,0,1,3.46-3.46H277.2a.46.46,0,0,0,.46-.46V35.06a.47.47,0,0,0-.46-.46H251.07a3.46,3.46,0,0,1-3.46-3.46V26.87a.44.44,0,0,0-.28-.42.43.43,0,0,0-.5.09Z"/></g></g></svg>