<svg xmlns="http://www.w3.org/2000/svg" viewBox="0 0 403.43 83.47"><defs><style>.cls-1{fill:#fff;}.cls-2{fill:#93dbd4;}.cls-3{fill:#f5d492;}</style></defs><title>19</title><g id="Layer_2" data-name="Layer 2"><g id="Layer_2-2" data-name="Layer 2"><path class="cls-1" d="M352.92,35.75A6.31,6.31,0,0,1,354,32.37a8.18,8.18,0,0,1,3.13-2.84,9.83,9.83,0,0,1,4.79-1.12,10.2,10.2,0,0,1,4.5.94,7.25,7.25,0,0,1,3,2.55,6.27,6.27,0,0,1,1.06,3.52,5.48,5.48,0,0,1-.6,2.62A8,8,0,0,1,368.45,40c-.55.55-1.55,1.46-3,2.75a10.78,10.78,0,0,0-1,1,4.19,4.19,0,0,0-.54.76,4.37,4.37,0,0,0-.27.68c-.06.23-.16.63-.29,1.21a2,2,0,0,1-2.09,1.82,2.18,2.18,0,0,1-1.54-.59,2.38,2.38,0,0,1-.62-1.78,6.66,6.66,0,0,1,.45-2.56,6.58,6.58,0,0,1,1.22-1.9,27.24,27.24,0,0,1,2-1.94c.75-.65,1.29-1.15,1.62-1.48a5.1,5.1,0,0,0,.85-1.12,2.81,2.81,0,0,0,.34-1.34,3.11,3.11,0,0,0-1.05-2.37,3.82,3.82,0,0,0-2.7-1,3.73,3.73,0,0,0-2.84,1A7.77,7.77,0,0,0,357.53,36c-.4,1.33-1.15,2-2.27,2a2.24,2.24,0,0,1-1.66-.69A2.16,2.16,0,0,1,352.92,35.75ZM361.5,55a2.73,2.73,0,0,1-1.87-.7,2.44,2.44,0,0,1-.8-1.94,2.5,2.5,0,0,1,.77-1.86,2.6,2.6,0,0,1,1.9-.76,2.58,2.58,0,0,1,2.62,2.62,2.46,2.46,0,0,1-.79,1.94A2.72,2.72,0,0,1,361.5,55Z"/><path class="cls-1" d="M81.92,83.47H1.5A1.5,1.5,0,0,1,0,82V1.55A1.5,1.5,0,0,1,1.5.05H81.92a1.5,1.5,0,0,1,1.5,1.5V82A1.5,1.5,0,0,1,81.92,83.47ZM3,80.47H80.42V3.05H3Z"/><path class="cls-1" d="M188.43,83.47H108a1.5,1.5,0,0,1-1.5-1.5V1.55A1.5,1.5,0,0,1,108,.05h80.42a1.5,1.5,0,0,1,1.5,1.5V82A1.5,1.5,0,0,1,188.43,83.47Zm-78.92-3h77.42V3.05H109.51Z"/><path class="cls-1" d="M294.94,83.47H214.52A1.5,1.5,0,0,1,213,82V1.55a1.5,1.5,0,0,1,1.5-1.5h80.42a1.5,1.5,0,0,1,1.5,1.5V82A1.5,1.5,0,0,1,294.94,83.47Zm-78.92-3h77.42V3.05H216Z"/><path class="cls-1" d="M401.93,83.42h-6a1.5,1.5,0,0,1,0-3h4.5v-4.5a1.5,1.5,0,0,1,3,0v6A1.5,1.5,0,0,1,401.93,83.42Z"/><path class="cls-1" d="M386.92,83.42h-10.8a1.5,1.5,0,0,1,0-3h10.8a1.5,1.5,0,0,1,0,3Zm-19.8,0H356.31a1.5,1.5,0,0,1,0-3h10.81a1.5,1.5,0,0,1,0,3Zm-19.81,0h-10.8a1.5,1.5,0,0,1,0-3h10.8a1.5,1.5,0,0,1,0,3Z"/><path class="cls-1" d="M327.5,83.42h-6a1.5,1.5,0,0,1-1.5-1.5v-6a1.5,1.5,0,0,1,3,0v4.5h4.5a1.5,1.5,0,0,1,0,3Z"/><path class="cls-1" d="M321.5,68.42a1.5,1.5,0,0,1-1.5-1.5V56.12a1.5,1.5,0,0,1,3,0v10.8A1.5,1.5,0,0,1,321.5,68.42Zm0-19.81a1.5,1.5,0,0,1-1.5-1.5V36.31a1.5,1.5,0,0,1,3,0v10.8A1.5,1.5,0,0,1,321.5,48.61Zm0-19.8a1.5,1.5,0,0,1-1.5-1.5V16.5a1.5,1.5,0,0,1,3,0V27.31A1.5,1.5,0,0,1,321.5,28.81Z"/><path class="cls-1" d="M321.5,9A1.5,1.5,0,0,1,320,7.5v-6A1.5,1.5,0,0,1,321.5,0h6a1.5,1.5,0,0,1,0,3H323V7.5A1.5,1.5,0,0,1,321.5,9Z"/><path class="cls-1" d="M386.92,3h-10.8a1.5,1.5,0,0,1,0-3h10.8a1.5,1.5,0,0,1,0,3Zm-19.8,0H356.31a1.5,1.5,0,0,1,0-3h10.81a1.5,1.5,0,0,1,0,3ZM347.31,3h-10.8a1.5,1.5,0,0,1,0-3h10.8a1.5,1.5,0,0,1,0,3Z"/><path class="cls-1" d="M401.93,9a1.5,1.5,0,0,1-1.5-1.5V3h-4.5a1.5,1.5,0,0,1,0-3h6a1.5,1.5,0,0,1,1.5,1.5v6A1.5,1.5,0,0,1,401.93,9Z"/><path class="cls-1" d="M401.93,68.42a1.5,1.5,0,0,1-1.5-1.5V56.12a1.5,1.5,0,0,1,3,0v10.8A1.5,1.5,0,0,1,401.93,68.42Zm0-19.81a1.5,1.5,0,0,1-1.5-1.5V36.31a1.5,1.5,0,0,1,3,0v10.8A1.5,1.5,0,0,1,401.93,48.61Zm0-19.8a1.5,1.5,0,0,1-1.5-1.5V16.5a1.5,1.5,0,0,1,3,0V27.31A1.5,1.5,0,0,1,401.93,28.81Z"/><path class="cls-2" d="M137.83,15.26a27.53,27.53,0,0,0-3.07.18,3,3,0,0,0-2.58,2.36A3,3,0,0,0,133.61,21a24,24,0,0,1,0,41.53,3,3,0,0,0-1.49,2.58,2.27,2.27,0,0,0,.07.61,3,3,0,0,0,2.58,2.36,27.2,27.2,0,0,0,3.06.19,26.5,26.5,0,0,0,0-53ZM148,47.16a27,27,0,0,0,.55-5.4c0-.28,0-.55,0-.83l10.09-10.09a23,23,0,0,1,1.67,4Zm9.48-18.25-9.18,9.18A26.94,26.94,0,0,0,147.07,33l7.58-7.59A23.48,23.48,0,0,1,157.49,28.91ZM137.83,18.26c.65,0,1.29,0,1.93.09l-1.91,1.91a27.29,27.29,0,0,0-2.74-1.84A25.86,25.86,0,0,1,137.83,18.26Zm1.7,3.38,2.92-2.92a23.06,23.06,0,0,1,4.83,1.54l-4.66,4.66A27.34,27.34,0,0,0,139.53,21.64Zm4.39,5,5.41-5.4a23.69,23.69,0,0,1,3.74,2.62l-6.88,6.88A26.87,26.87,0,0,0,143.92,26.68Zm-8.8,38.43A27.2,27.2,0,0,0,146.7,51.53l14.2-14.2a23.18,23.18,0,0,1,.43,4.43c0,.53,0,1.05-.06,1.57L139.39,65.2q-.78.06-1.56.06C137,65.26,136.15,65.21,135.12,65.11Zm7.85-.42,17.78-17.78A23.57,23.57,0,0,1,143,64.69Z"/><path class="cls-3" d="M248.49,25.26a16.05,16.05,0,0,0-1.91.12,2.39,2.39,0,0,0-.92,4.44,13.81,13.81,0,0,1,0,23.88,2.39,2.39,0,0,0-1.19,2.07,2.14,2.14,0,0,0,.05.48,2.36,2.36,0,0,0,2.07,1.89,17,17,0,0,0,1.9.12,16.5,16.5,0,1,0,0-33ZM255.13,30a13.43,13.43,0,0,1,1.93,1.32l-3.19,3.19a16.31,16.31,0,0,0-1.17-2.08Zm.26,13.91a17.32,17.32,0,0,0,.14-2.17c0-.27,0-.54,0-.81l5.1-5.1a13.44,13.44,0,0,1,.81,2Zm-.12-5.14a17.26,17.26,0,0,0-.69-2.56l3.72-3.72a13.06,13.06,0,0,1,1.44,1.8Zm-6.46-10.52,0,0s0,0,0,0Zm1.28,1.13.89-.89a13.07,13.07,0,0,1,2.52.73l-1.83,1.83A15.55,15.55,0,0,0,250.09,29.4Zm4.57,17.67,7.18-7.19a13,13,0,0,1,.15,1.88c0,.44,0,.86-.06,1.29L249.79,55.19c-.35,0-.71.06-1.06.07A17,17,0,0,0,254.66,47.07Zm-1.81,7.46,8.4-8.4A13.51,13.51,0,0,1,252.85,54.53Z"/><path class="cls-3" d="M60.77,56,43,26a1.49,1.49,0,0,0-2.58,0L22.65,56a1.5,1.5,0,0,0,1.29,2.26H59.48A1.5,1.5,0,0,0,60.77,56ZM47.45,39.4l1.23,2.07L34.88,55.26H31.59ZM49.61,43,51,45.38l-9.88,9.88H37.39ZM51.93,47l1.39,2.34-6,6H43.63Zm2.32,3.92,1.39,2.34-2,2H49.87ZM42.81,31.56l1.39,2.35L32,46.11,37.42,37ZM41.88,30l-.82.82.65-1.1ZM28.35,52.26,45.13,35.48l1.39,2.35L29.08,55.26h-2.5Zm27.75,3,.47-.47.28.47Z"/></g></g></svg>