<svg xmlns="http://www.w3.org/2000/svg" viewBox="0 0 403.43 83.47"><defs><style>.cls-1{fill:#fff;}.cls-2{fill:#93dbd4;}.cls-3{fill:#f5d492;}</style></defs><title>add</title><g id="Layer_2" data-name="Layer 2"><g id="Layer_2-2" data-name="Layer 2"><path class="cls-1" d="M352.92,35.75A6.31,6.31,0,0,1,354,32.37a8.18,8.18,0,0,1,3.13-2.84,9.83,9.83,0,0,1,4.79-1.12,10.2,10.2,0,0,1,4.5.94,7.25,7.25,0,0,1,3,2.55,6.27,6.27,0,0,1,1.06,3.52,5.48,5.48,0,0,1-.6,2.62A8,8,0,0,1,368.45,40c-.55.55-1.55,1.46-3,2.75a10.78,10.78,0,0,0-1,1,4.19,4.19,0,0,0-.54.76,4.37,4.37,0,0,0-.27.68c-.06.23-.16.63-.29,1.21a2,2,0,0,1-2.09,1.82,2.18,2.18,0,0,1-1.54-.59,2.38,2.38,0,0,1-.62-1.78,6.66,6.66,0,0,1,.45-2.56,6.58,6.58,0,0,1,1.22-1.9,27.24,27.24,0,0,1,2-1.94c.75-.65,1.29-1.15,1.62-1.48a5.1,5.1,0,0,0,.85-1.12,2.81,2.81,0,0,0,.34-1.34,3.11,3.11,0,0,0-1.05-2.37,3.82,3.82,0,0,0-2.7-1,3.73,3.73,0,0,0-2.84,1A7.77,7.77,0,0,0,357.53,36c-.4,1.33-1.15,2-2.27,2a2.24,2.24,0,0,1-1.66-.69A2.16,2.16,0,0,1,352.92,35.75ZM361.5,55a2.73,2.73,0,0,1-1.87-.7,2.44,2.44,0,0,1-.8-1.94,2.5,2.5,0,0,1,.77-1.86,2.6,2.6,0,0,1,1.9-.76,2.58,2.58,0,0,1,2.62,2.62,2.46,2.46,0,0,1-.79,1.94A2.72,2.72,0,0,1,361.5,55Z"/><path class="cls-1" d="M81.92,83.47H1.5A1.5,1.5,0,0,1,0,82V1.55A1.5,1.5,0,0,1,1.5.05H81.92a1.5,1.5,0,0,1,1.5,1.5V82A1.5,1.5,0,0,1,81.92,83.47ZM3,80.47H80.42V3.05H3Z"/><path class="cls-1" d="M188.43,83.47H108a1.5,1.5,0,0,1-1.5-1.5V1.55A1.5,1.5,0,0,1,108,.05h80.42a1.5,1.5,0,0,1,1.5,1.5V82A1.5,1.5,0,0,1,188.43,83.47Zm-78.92-3h77.42V3.05H109.51Z"/><path class="cls-1" d="M294.94,83.47H214.52A1.5,1.5,0,0,1,213,82V1.55a1.5,1.5,0,0,1,1.5-1.5h80.42a1.5,1.5,0,0,1,1.5,1.5V82A1.5,1.5,0,0,1,294.94,83.47Zm-78.92-3h77.42V3.05H216Z"/><path class="cls-1" d="M401.93,83.42h-6a1.5,1.5,0,0,1,0-3h4.5v-4.5a1.5,1.5,0,0,1,3,0v6A1.5,1.5,0,0,1,401.93,83.42Z"/><path class="cls-1" d="M386.92,83.42h-10.8a1.5,1.5,0,0,1,0-3h10.8a1.5,1.5,0,0,1,0,3Zm-19.8,0H356.31a1.5,1.5,0,0,1,0-3h10.81a1.5,1.5,0,0,1,0,3Zm-19.81,0h-10.8a1.5,1.5,0,0,1,0-3h10.8a1.5,1.5,0,0,1,0,3Z"/><path class="cls-1" d="M327.5,83.42h-6a1.5,1.5,0,0,1-1.5-1.5v-6a1.5,1.5,0,0,1,3,0v4.5h4.5a1.5,1.5,0,0,1,0,3Z"/><path class="cls-1" d="M321.5,68.42a1.5,1.5,0,0,1-1.5-1.5V56.12a1.5,1.5,0,0,1,3,0v10.8A1.5,1.5,0,0,1,321.5,68.42Zm0-19.81a1.5,1.5,0,0,1-1.5-1.5V36.31a1.5,1.5,0,0,1,3,0v10.8A1.5,1.5,0,0,1,321.5,48.61Zm0-19.8a1.5,1.5,0,0,1-1.5-1.5V16.5a1.5,1.5,0,0,1,3,0V27.31A1.5,1.5,0,0,1,321.5,28.81Z"/><path class="cls-1" d="M321.5,9A1.5,1.5,0,0,1,320,7.5v-6A1.5,1.5,0,0,1,321.5,0h6a1.5,1.5,0,0,1,0,3H323V7.5A1.5,1.5,0,0,1,321.5,9Z"/><path class="cls-1" d="M386.92,3h-10.8a1.5,1.5,0,0,1,0-3h10.8a1.5,1.5,0,0,1,0,3Zm-19.8,0H356.31a1.5,1.5,0,0,1,0-3h10.81a1.5,1.5,0,0,1,0,3ZM347.31,3h-10.8a1.5,1.5,0,0,1,0-3h10.8a1.5,1.5,0,0,1,0,3Z"/><path class="cls-1" d="M401.93,9a1.5,1.5,0,0,1-1.5-1.5V3h-4.5a1.5,1.5,0,0,1,0-3h6a1.5,1.5,0,0,1,1.5,1.5v6A1.5,1.5,0,0,1,401.93,9Z"/><path class="cls-1" d="M401.93,68.42a1.5,1.5,0,0,1-1.5-1.5V56.12a1.5,1.5,0,0,1,3,0v10.8A1.5,1.5,0,0,1,401.93,68.42Zm0-19.81a1.5,1.5,0,0,1-1.5-1.5V36.31a1.5,1.5,0,0,1,3,0v10.8A1.5,1.5,0,0,1,401.93,48.61Zm0-19.8a1.5,1.5,0,0,1-1.5-1.5V16.5a1.5,1.5,0,0,1,3,0V27.31A1.5,1.5,0,0,1,401.93,28.81Z"/><path class="cls-2" d="M31.32,15.26a27.53,27.53,0,0,0-3.07.18,3,3,0,0,0-2.57,2.36A3,3,0,0,0,27.1,21a24,24,0,0,1,0,41.53,3,3,0,0,0-1.49,2.58,2.22,2.22,0,0,0,.07.61,3,3,0,0,0,2.59,2.36,26.89,26.89,0,0,0,3.05.19,26.5,26.5,0,0,0,0-53Zm2.33,49.89c.65-.07,1.29-.16,1.92-.28C34.94,65,34.3,65.08,33.65,65.15Zm1.93-.28L54.42,46c.12-.63.22-1.28.28-1.93L33.65,65.15c-.77.07-1.55.11-2.33.11s-1.68-.06-2.71-.15A27.25,27.25,0,0,0,41,49.14c-.12.42-.24.84-.38,1.26L54.27,36.74q-.15-.66-.33-1.32L41.28,48.08h0a26.69,26.69,0,0,0,.77-6.33c0-.51,0-1,0-1.52h0l9.87-9.87c-.2-.35-.4-.7-.62-1l-9.38,9.39v0a27,27,0,0,0-1.51-6.31h0L47.79,25c-.27-.28-.56-.54-.85-.8l-7,7h0a27.22,27.22,0,0,0-2.8-5l0,0L42.36,21c-.36-.2-.73-.38-1.1-.55l-4.83,4.83h0a27.12,27.12,0,0,0-7.82-6.89,23.5,23.5,0,0,1,7,46.45Z"/><path class="cls-2" d="M31.74,20.57c.31.24.61.49.91.75l2.7-2.7c-.48-.09-1-.16-1.45-.21Z"/><path class="cls-3" d="M281.05,28.3a3,3,0,0,0-2.36-2.57,3,3,0,0,0-3.19,1.42,24,24,0,0,1-41.53,0,3,3,0,0,0-2.58-1.49,2.27,2.27,0,0,0-.61.07,3,3,0,0,0-2.36,2.58,27.06,27.06,0,0,0-.19,3.06,26.5,26.5,0,0,0,53,0A27.53,27.53,0,0,0,281.05,28.3ZM247.34,41.05c-.41-.11-.81-.24-1.21-.37Zm-16-7.35c.07.65.17,1.29.28,1.93C231.51,35,231.41,34.35,231.34,33.7Zm23.39,21.17a23.54,23.54,0,0,1-23.11-19.24l18.85,18.84c.63.12,1.28.22,1.93.28l-21.06-21c-.07-.77-.11-1.55-.11-2.33s.06-1.69.15-2.71a27.3,27.3,0,0,0,14.71,12l13.66,13.65c.44-.09.88-.21,1.32-.33L248.41,41.33a26.67,26.67,0,0,0,6.32.77c.51,0,1,0,1.51-.05l9.87,9.87c.35-.2.7-.4,1-.62l-9.39-9.38a27.27,27.27,0,0,0,6.28-1.5l7.42,7.42c.28-.27.54-.56.8-.85l-7-7a26.49,26.49,0,0,0,5-2.78l5.24,5.24c.2-.36.38-.73.55-1.1l-4.83-4.83a27.12,27.12,0,0,0,6.89-7.82,23.47,23.47,0,0,1-23.34,26.21Z"/><path class="cls-3" d="M275.18,32.7l2.7,2.7c.08-.48.15-1,.2-1.45l-2.16-2.16C275.68,32.1,275.43,32.4,275.18,32.7Z"/><path class="cls-2" d="M176.17,26.07A1.51,1.51,0,0,0,174.72,25h-53a1.5,1.5,0,0,0-1.5,1.5v30.6a1.51,1.51,0,0,0,.75,1.3,1.49,1.49,0,0,0,1.5,0l53-30.6a1.5,1.5,0,0,0,.75-1.3A1.74,1.74,0,0,0,176.17,26.07ZM123.22,54.46V49.58l3.09,3.1,1-.55Zm4.2-2.42-4.2-4.2v-8.2l9.4,9.4Zm5.45-3.15.85-.49-10.5-10.5V29.7l15.7,15.7,1.11-.64L123.23,28h8.2l13.8,13.8.72-.42Zm.3-20.93h7.51l10.41,10.41-4.76,2.75Zm19,9.78L142.42,28h8.2l6.77,6.77Zm6.31-3.64L152.36,28h8.2l3.14,3.14Zm6-3.48.27-.16L162.31,28h6.81Z"/></g></g></svg>