<svg xmlns="http://www.w3.org/2000/svg" viewBox="0 0 403.43 83.47"><defs><style>.cls-1{fill:#fff;}.cls-2{fill:#f5d492;}.cls-3{fill:#93dbd4;}</style></defs><title>23</title><g id="Layer_2" data-name="Layer 2"><g id="Layer_2-2" data-name="Layer 2"><path class="cls-1" d="M354.68,34.41A6.39,6.39,0,0,1,355.75,31a8.33,8.33,0,0,1,3.13-2.84,9.84,9.84,0,0,1,4.8-1.12,10.2,10.2,0,0,1,4.5.94,7.17,7.17,0,0,1,3,2.56,6.25,6.25,0,0,1,1.07,3.51,5.37,5.37,0,0,1-.61,2.62,7.71,7.71,0,0,1-1.44,1.94c-.56.55-1.56,1.46-3,2.75-.4.37-.71.69-.95,1a4.19,4.19,0,0,0-.54.76,3.21,3.21,0,0,0-.27.68c-.07.23-.16.63-.29,1.21a2,2,0,0,1-2.1,1.83,2.12,2.12,0,0,1-1.53-.6,2.34,2.34,0,0,1-.63-1.78,6.69,6.69,0,0,1,.46-2.56A6.37,6.37,0,0,1,362.57,40q.76-.83,2-2c.75-.65,1.29-1.15,1.63-1.48a5.38,5.38,0,0,0,.84-1.12,2.66,2.66,0,0,0,.34-1.33,3.11,3.11,0,0,0-1-2.38,3.85,3.85,0,0,0-2.7-1,3.74,3.74,0,0,0-2.85,1,7.73,7.73,0,0,0-1.54,2.88c-.4,1.32-1.16,2-2.27,2a2.23,2.23,0,0,1-1.66-.69A2.14,2.14,0,0,1,354.68,34.41Zm8.58,19.26a2.76,2.76,0,0,1-1.87-.69,2.43,2.43,0,0,1-.8-1.95,2.48,2.48,0,0,1,.77-1.86,2.64,2.64,0,0,1,1.9-.76A2.6,2.6,0,0,1,365.88,51a2.49,2.49,0,0,1-.79,1.94A2.67,2.67,0,0,1,363.26,53.67Z"/><path class="cls-1" d="M81.92,83.47H1.5A1.5,1.5,0,0,1,0,82V1.55A1.5,1.5,0,0,1,1.5.05H81.92a1.5,1.5,0,0,1,1.5,1.5V82A1.5,1.5,0,0,1,81.92,83.47ZM3,80.47H80.42V3.05H3Z"/><path class="cls-1" d="M188.43,83.47H108a1.5,1.5,0,0,1-1.5-1.5V1.55A1.5,1.5,0,0,1,108,.05h80.42a1.5,1.5,0,0,1,1.5,1.5V82A1.5,1.5,0,0,1,188.43,83.47Zm-78.92-3h77.42V3.05H109.51Z"/><path class="cls-1" d="M294.94,83.47H214.52A1.5,1.5,0,0,1,213,82V1.55a1.5,1.5,0,0,1,1.5-1.5h80.42a1.5,1.5,0,0,1,1.5,1.5V82A1.5,1.5,0,0,1,294.94,83.47Zm-78.92-3h77.42V3.05H216Z"/><path class="cls-1" d="M401.93,83.42h-6a1.5,1.5,0,0,1,0-3h4.5v-4.5a1.5,1.5,0,0,1,3,0v6A1.5,1.5,0,0,1,401.93,83.42Z"/><path class="cls-1" d="M386.92,83.42h-10.8a1.5,1.5,0,0,1,0-3h10.8a1.5,1.5,0,0,1,0,3Zm-19.8,0H356.31a1.5,1.5,0,0,1,0-3h10.81a1.5,1.5,0,0,1,0,3Zm-19.81,0h-10.8a1.5,1.5,0,0,1,0-3h10.8a1.5,1.5,0,0,1,0,3Z"/><path class="cls-1" d="M327.5,83.42h-6a1.5,1.5,0,0,1-1.5-1.5v-6a1.5,1.5,0,0,1,3,0v4.5h4.5a1.5,1.5,0,0,1,0,3Z"/><path class="cls-1" d="M321.5,68.42a1.5,1.5,0,0,1-1.5-1.5V56.12a1.5,1.5,0,0,1,3,0v10.8A1.5,1.5,0,0,1,321.5,68.42Zm0-19.81a1.5,1.5,0,0,1-1.5-1.5V36.31a1.5,1.5,0,0,1,3,0v10.8A1.5,1.5,0,0,1,321.5,48.61Zm0-19.8a1.5,1.5,0,0,1-1.5-1.5V16.5a1.5,1.5,0,0,1,3,0V27.31A1.5,1.5,0,0,1,321.5,28.81Z"/><path class="cls-1" d="M321.5,9A1.5,1.5,0,0,1,320,7.5v-6A1.5,1.5,0,0,1,321.5,0h6a1.5,1.5,0,0,1,0,3H323V7.5A1.5,1.5,0,0,1,321.5,9Z"/><path class="cls-1" d="M386.92,3h-10.8a1.5,1.5,0,0,1,0-3h10.8a1.5,1.5,0,0,1,0,3Zm-19.8,0H356.31a1.5,1.5,0,0,1,0-3h10.81a1.5,1.5,0,0,1,0,3ZM347.31,3h-10.8a1.5,1.5,0,0,1,0-3h10.8a1.5,1.5,0,0,1,0,3Z"/><path class="cls-1" d="M401.93,9a1.5,1.5,0,0,1-1.5-1.5V3h-4.5a1.5,1.5,0,0,1,0-3h6a1.5,1.5,0,0,1,1.5,1.5v6A1.5,1.5,0,0,1,401.93,9Z"/><path class="cls-1" d="M401.93,68.42a1.5,1.5,0,0,1-1.5-1.5V56.12a1.5,1.5,0,0,1,3,0v10.8A1.5,1.5,0,0,1,401.93,68.42Zm0-19.81a1.5,1.5,0,0,1-1.5-1.5V36.31a1.5,1.5,0,0,1,3,0v10.8A1.5,1.5,0,0,1,401.93,48.61Zm0-19.8a1.5,1.5,0,0,1-1.5-1.5V16.5a1.5,1.5,0,0,1,3,0V27.31A1.5,1.5,0,0,1,401.93,28.81Z"/><path class="cls-2" d="M67.31,65.76h-52A1.5,1.5,0,0,1,14,65a1.54,1.54,0,0,1,0-1.5l26-45a1.49,1.49,0,0,1,2.59,0l26,45a1.49,1.49,0,0,1,0,1.5A1.47,1.47,0,0,1,67.31,65.76Zm-49.37-3H64.71L41.32,22.26Z"/><circle class="cls-2" cx="67.31" cy="64.26" r="7.73"/><circle class="cls-3" cx="41.32" cy="19.26" r="7.73"/><path class="cls-2" d="M173.81,65.76h-52a1.5,1.5,0,0,1-1.3-.75,1.54,1.54,0,0,1,0-1.5l26-45a1.5,1.5,0,0,1,2.6,0l26,45a1.5,1.5,0,0,1-1.3,2.25Zm-49.36-3h46.77l-23.39-40.5Z"/><circle class="cls-2" cx="149.67" cy="64.26" r="7.73"/><circle class="cls-3" cx="134.76" cy="41.76" r="7.73"/><path class="cls-2" d="M280.32,65.76h-52a1.5,1.5,0,0,1-1.3-2.25l26-45a1.5,1.5,0,0,1,2.6,0l26,45a1.5,1.5,0,0,1-1.3,2.25Zm-49.36-3h46.76l-23.38-40.5Z"/><circle class="cls-3" cx="229.14" cy="64.26" r="7.73"/></g></g></svg>