<svg xmlns="http://www.w3.org/2000/svg" viewBox="0 0 403.43 83.64"><defs><style>.cls-1{fill:#fff;}.cls-2{fill:#93dbd4;}</style></defs><title>25</title><g id="Layer_2" data-name="Layer 2"><g id="Layer_2-2" data-name="Layer 2"><path class="cls-1" d="M352.92,35.75A6.31,6.31,0,0,1,354,32.37a8.18,8.18,0,0,1,3.13-2.84,9.83,9.83,0,0,1,4.79-1.12,10.2,10.2,0,0,1,4.5.94,7.25,7.25,0,0,1,3,2.55,6.27,6.27,0,0,1,1.06,3.52,5.48,5.48,0,0,1-.6,2.62A8.23,8.23,0,0,1,368.46,40c-.56.55-1.56,1.46-3,2.75a10.78,10.78,0,0,0-1,1,4.19,4.19,0,0,0-.54.76,4.37,4.37,0,0,0-.27.68c-.06.23-.16.63-.29,1.21a2,2,0,0,1-2.09,1.82,2.18,2.18,0,0,1-1.54-.59,2.38,2.38,0,0,1-.62-1.78,6.66,6.66,0,0,1,.45-2.56,6.58,6.58,0,0,1,1.22-1.9,27.24,27.24,0,0,1,2-1.94c.75-.65,1.29-1.15,1.62-1.48a5.1,5.1,0,0,0,.85-1.12,2.7,2.7,0,0,0,.34-1.34,3.11,3.11,0,0,0-1.05-2.37,3.82,3.82,0,0,0-2.7-1,3.73,3.73,0,0,0-2.84,1A7.77,7.77,0,0,0,357.53,36c-.4,1.33-1.15,2-2.27,2a2.24,2.24,0,0,1-1.66-.69A2.16,2.16,0,0,1,352.92,35.75ZM361.5,55a2.73,2.73,0,0,1-1.87-.7,2.44,2.44,0,0,1-.8-1.94,2.5,2.5,0,0,1,.77-1.86,2.6,2.6,0,0,1,1.9-.76,2.58,2.58,0,0,1,2.62,2.62,2.46,2.46,0,0,1-.79,1.94A2.72,2.72,0,0,1,361.5,55Z"/><path class="cls-1" d="M401.93,83.42h-6a1.5,1.5,0,0,1,0-3h4.5v-4.5a1.5,1.5,0,0,1,3,0v6A1.5,1.5,0,0,1,401.93,83.42Z"/><path class="cls-1" d="M386.92,83.42h-10.8a1.5,1.5,0,0,1,0-3h10.8a1.5,1.5,0,0,1,0,3Zm-19.8,0H356.31a1.5,1.5,0,0,1,0-3h10.81a1.5,1.5,0,0,1,0,3Zm-19.81,0h-10.8a1.5,1.5,0,0,1,0-3h10.8a1.5,1.5,0,0,1,0,3Z"/><path class="cls-1" d="M327.5,83.42h-6a1.5,1.5,0,0,1-1.5-1.5v-6a1.5,1.5,0,0,1,3,0v4.5h4.5a1.5,1.5,0,0,1,0,3Z"/><path class="cls-1" d="M321.5,68.42a1.5,1.5,0,0,1-1.5-1.5V56.12a1.5,1.5,0,0,1,3,0v10.8A1.5,1.5,0,0,1,321.5,68.42Zm0-19.81a1.5,1.5,0,0,1-1.5-1.5V36.31a1.5,1.5,0,0,1,3,0v10.8A1.5,1.5,0,0,1,321.5,48.61Zm0-19.8a1.5,1.5,0,0,1-1.5-1.5V16.5a1.5,1.5,0,0,1,3,0V27.31A1.5,1.5,0,0,1,321.5,28.81Z"/><path class="cls-1" d="M321.5,9A1.5,1.5,0,0,1,320,7.5v-6A1.5,1.5,0,0,1,321.5,0h6a1.5,1.5,0,0,1,0,3H323V7.5A1.5,1.5,0,0,1,321.5,9Z"/><path class="cls-1" d="M386.92,3h-10.8a1.5,1.5,0,0,1,0-3h10.8a1.5,1.5,0,0,1,0,3Zm-19.8,0H356.31a1.5,1.5,0,0,1,0-3h10.81a1.5,1.5,0,0,1,0,3ZM347.31,3h-10.8a1.5,1.5,0,0,1,0-3h10.8a1.5,1.5,0,0,1,0,3Z"/><path class="cls-1" d="M401.93,9a1.5,1.5,0,0,1-1.5-1.5V3h-4.5a1.5,1.5,0,0,1,0-3h6a1.5,1.5,0,0,1,1.5,1.5v6A1.5,1.5,0,0,1,401.93,9Z"/><path class="cls-1" d="M401.93,68.42a1.5,1.5,0,0,1-1.5-1.5V56.12a1.5,1.5,0,0,1,3,0v10.8A1.5,1.5,0,0,1,401.93,68.42Zm0-19.81a1.5,1.5,0,0,1-1.5-1.5V36.31a1.5,1.5,0,0,1,3,0v10.8A1.5,1.5,0,0,1,401.93,48.61Zm0-19.8a1.5,1.5,0,0,1-1.5-1.5V16.5a1.5,1.5,0,0,1,3,0V27.31A1.5,1.5,0,0,1,401.93,28.81Z"/><path class="cls-2" d="M81.92.22H1.5A1.5,1.5,0,0,0,0,1.72V82.14a1.5,1.5,0,0,0,1.5,1.5H81.92a1.5,1.5,0,0,0,1.5-1.5V1.72A1.5,1.5,0,0,0,81.92.22ZM3,3.22H80.42V78.78L42.66,40.66A1.49,1.49,0,0,0,41,40.32a1.51,1.51,0,0,0-.93,1.39V80.64H3ZM43.09,74.34l6.08,6.08H43.09Zm31.26,6.08a1.91,1.91,0,0,0-.53-.94L43.09,48.75V45.36L77.83,80.42ZM43.09,52.11,71.4,80.42H63.65L43.09,59.87Zm0,11.12,17.2,17.19H52.54L43.09,71Z"/><path class="cls-2" d="M188.43.05H108a1.5,1.5,0,0,0-1.5,1.5V82a1.5,1.5,0,0,0,1.5,1.5h80.42a1.5,1.5,0,0,0,1.5-1.5V1.55A1.5,1.5,0,0,0,188.43.05Zm-2,12.4L182.92,9l3.48-3.53Zm-5.23-1.72L186.4,16v8.4L177,15Zm-5.92,6L186.4,27.87v8.4L171.06,20.93Zm-5.93,6L186.4,39.78v8.41L165.14,26.92Zm-5.93,6,23,23V60.1L159.21,32.9Zm-5.92,6L186.4,63.6V72L153.28,38.88Zm-7.9,38.91,6.86,6.85h-6.86Zm2-32.93L186.4,75.51v4.91h-3.19a1.93,1.93,0,0,0-.59-1.12l-33.05-33V42.63Zm-2,9.11,30.68,30.67h-8.41L149.57,58.16Zm0,11.91,18.77,18.76h-8.41L149.57,70.07ZM109.51,3.05h75L147,41a1.49,1.49,0,0,0-.44,1V80.47H109.51Z"/><path class="cls-2" d="M294.94.05H214.52a1.5,1.5,0,0,0-1.5,1.5V82a1.5,1.5,0,0,0,1.5,1.5h80.42a1.5,1.5,0,0,0,1.5-1.5V1.55A1.5,1.5,0,0,0,294.94.05ZM256.15,69.9V61.49L274.64,80h-8.41Zm0-11.91V49.58L286.54,80h-8.4Zm0,15.41L262.73,80h-6.58Zm36.83-10v8.41L224.44,3.3h8.41ZM236.35,3.3h8.41L293,51.52v8.41ZM293,3.88v8.41l-9-9h8.41Zm0,11.91V24.2L272.08,3.3h8.41Zm0,11.91v8.41L260.17,3.3h8.41Zm0,11.91V48L248.26,3.3h8.41Zm-72-36.31,72,72V80h-3.15a2.06,2.06,0,0,0-.46-.67L256.15,46.08V41.44a1.48,1.48,0,0,0-.43-1L219.23,3.3Zm-4.92,1,37.13,37.75V80.47H216Z"/></g></g></svg>