<svg xmlns="http://www.w3.org/2000/svg" viewBox="0 0 403.43 83.47"><defs><style>.cls-1{fill:#fff;}.cls-2{fill:#93dbd4;}.cls-3{fill:#f5d492;}</style></defs><title>28</title><g id="Layer_2" data-name="Layer 2"><g id="Layer_2-2" data-name="Layer 2"><path class="cls-1" d="M352.92,35.75A6.31,6.31,0,0,1,354,32.37a8.18,8.18,0,0,1,3.13-2.84,9.83,9.83,0,0,1,4.79-1.12,10.2,10.2,0,0,1,4.5.94,7.25,7.25,0,0,1,3,2.55,6.27,6.27,0,0,1,1.06,3.52,5.48,5.48,0,0,1-.6,2.62A8,8,0,0,1,368.45,40c-.55.55-1.55,1.46-3,2.75a10.78,10.78,0,0,0-1,1,4.19,4.19,0,0,0-.54.76,4.37,4.37,0,0,0-.27.68c-.06.23-.16.63-.29,1.21a2,2,0,0,1-2.09,1.82,2.18,2.18,0,0,1-1.54-.59,2.38,2.38,0,0,1-.62-1.78,6.66,6.66,0,0,1,.45-2.56,6.58,6.58,0,0,1,1.22-1.9,27.24,27.24,0,0,1,2-1.94c.75-.65,1.29-1.15,1.62-1.48a5.1,5.1,0,0,0,.85-1.12,2.81,2.81,0,0,0,.34-1.34,3.11,3.11,0,0,0-1.05-2.37,3.82,3.82,0,0,0-2.7-1,3.73,3.73,0,0,0-2.84,1A7.77,7.77,0,0,0,357.53,36c-.4,1.33-1.15,2-2.27,2a2.24,2.24,0,0,1-1.66-.69A2.16,2.16,0,0,1,352.92,35.75ZM361.5,55a2.73,2.73,0,0,1-1.87-.7,2.44,2.44,0,0,1-.8-1.94,2.5,2.5,0,0,1,.77-1.86,2.6,2.6,0,0,1,1.9-.76,2.58,2.58,0,0,1,2.62,2.62,2.46,2.46,0,0,1-.79,1.94A2.72,2.72,0,0,1,361.5,55Z"/><path class="cls-1" d="M81.92,83.47H1.5A1.5,1.5,0,0,1,0,82V1.55A1.5,1.5,0,0,1,1.5.05H81.92a1.5,1.5,0,0,1,1.5,1.5V82A1.5,1.5,0,0,1,81.92,83.47ZM3,80.47H80.42V3.05H3Z"/><path class="cls-1" d="M188.43,83.47H108a1.5,1.5,0,0,1-1.5-1.5V1.55A1.5,1.5,0,0,1,108,.05h80.42a1.5,1.5,0,0,1,1.5,1.5V82A1.5,1.5,0,0,1,188.43,83.47Zm-78.92-3h77.42V3.05H109.51Z"/><path class="cls-1" d="M294.94,83.47H214.52A1.5,1.5,0,0,1,213,82V1.55a1.5,1.5,0,0,1,1.5-1.5h80.42a1.5,1.5,0,0,1,1.5,1.5V82A1.5,1.5,0,0,1,294.94,83.47Zm-78.92-3h77.42V3.05H216Z"/><path class="cls-1" d="M401.93,83.42h-6a1.5,1.5,0,0,1,0-3h4.5v-4.5a1.5,1.5,0,0,1,3,0v6A1.5,1.5,0,0,1,401.93,83.42Z"/><path class="cls-1" d="M386.92,83.42h-10.8a1.5,1.5,0,0,1,0-3h10.8a1.5,1.5,0,0,1,0,3Zm-19.8,0H356.31a1.5,1.5,0,0,1,0-3h10.81a1.5,1.5,0,0,1,0,3Zm-19.81,0h-10.8a1.5,1.5,0,0,1,0-3h10.8a1.5,1.5,0,0,1,0,3Z"/><path class="cls-1" d="M327.5,83.42h-6a1.5,1.5,0,0,1-1.5-1.5v-6a1.5,1.5,0,0,1,3,0v4.5h4.5a1.5,1.5,0,0,1,0,3Z"/><path class="cls-1" d="M321.5,68.42a1.5,1.5,0,0,1-1.5-1.5V56.12a1.5,1.5,0,0,1,3,0v10.8A1.5,1.5,0,0,1,321.5,68.42Zm0-19.81a1.5,1.5,0,0,1-1.5-1.5V36.31a1.5,1.5,0,0,1,3,0v10.8A1.5,1.5,0,0,1,321.5,48.61Zm0-19.8a1.5,1.5,0,0,1-1.5-1.5V16.5a1.5,1.5,0,0,1,3,0V27.31A1.5,1.5,0,0,1,321.5,28.81Z"/><path class="cls-1" d="M321.5,9A1.5,1.5,0,0,1,320,7.5v-6A1.5,1.5,0,0,1,321.5,0h6a1.5,1.5,0,0,1,0,3H323V7.5A1.5,1.5,0,0,1,321.5,9Z"/><path class="cls-1" d="M386.92,3h-10.8a1.5,1.5,0,0,1,0-3h10.8a1.5,1.5,0,0,1,0,3Zm-19.8,0H356.31a1.5,1.5,0,0,1,0-3h10.81a1.5,1.5,0,0,1,0,3ZM347.31,3h-10.8a1.5,1.5,0,0,1,0-3h10.8a1.5,1.5,0,0,1,0,3Z"/><path class="cls-1" d="M401.93,9a1.5,1.5,0,0,1-1.5-1.5V3h-4.5a1.5,1.5,0,0,1,0-3h6a1.5,1.5,0,0,1,1.5,1.5v6A1.5,1.5,0,0,1,401.93,9Z"/><path class="cls-1" d="M401.93,68.42a1.5,1.5,0,0,1-1.5-1.5V56.12a1.5,1.5,0,0,1,3,0v10.8A1.5,1.5,0,0,1,401.93,68.42Zm0-19.81a1.5,1.5,0,0,1-1.5-1.5V36.31a1.5,1.5,0,0,1,3,0v10.8A1.5,1.5,0,0,1,401.93,48.61Zm0-19.8a1.5,1.5,0,0,1-1.5-1.5V16.5a1.5,1.5,0,0,1,3,0V27.31A1.5,1.5,0,0,1,401.93,28.81Z"/><path class="cls-2" d="M41.71,32.7a9,9,0,1,0,9,9A9,9,0,0,0,41.71,32.7Zm-2.9,2.64L35.35,38.8A7,7,0,0,1,38.81,35.34Zm-4,5,5.48-5.48a6.95,6.95,0,0,1,4.3.5l-9.27,9.27a6.85,6.85,0,0,1-.51-4.29Zm.86,5,9.58-9.58a7,7,0,0,1,2.41,2.39l-9.6,9.6A7.07,7.07,0,0,1,35.71,45.28ZM38.77,48l9.28-9.28a6.88,6.88,0,0,1,.66,2.94A6.45,6.45,0,0,1,48.58,43l-5.53,5.54a7.42,7.42,0,0,1-1.34.13A6.92,6.92,0,0,1,38.77,48Zm5.77.06,3.57-3.58A7,7,0,0,1,44.54,48.1Z"/><path class="cls-2" d="M17.49,50.82a9,9,0,1,1,9-9A9,9,0,0,1,17.49,50.82Zm0-16a7,7,0,1,0,7,7A7,7,0,0,0,17.49,34.82Z"/><path class="cls-3" d="M65.94,50.82a9,9,0,1,1,9-9A9,9,0,0,1,65.94,50.82Zm0-16a7,7,0,1,0,7,7A7,7,0,0,0,65.94,34.82Z"/><path class="cls-3" d="M148.22,50.82a9,9,0,1,1,9-9A9,9,0,0,1,148.22,50.82Zm0-16a7,7,0,1,0,7,7A7,7,0,0,0,148.22,34.82Z"/><path class="cls-2" d="M124,32.73a9,9,0,1,0,9,9A9,9,0,0,0,124,32.73Zm-2.9,2.64-3.46,3.46A7,7,0,0,1,121.09,35.37Zm-4,5,5.48-5.48a6.95,6.95,0,0,1,4.3.5l-9.27,9.27a6.85,6.85,0,0,1-.51-4.29Zm.86,5,9.59-9.58a7,7,0,0,1,2.4,2.39l-9.59,9.6A7,7,0,0,1,118,45.31Zm3.06,2.76,9.29-9.28a7,7,0,0,1,.65,2.94,6.52,6.52,0,0,1-.13,1.33l-5.53,5.54a7.34,7.34,0,0,1-1.34.13A6.92,6.92,0,0,1,121.05,48.07Zm5.77.06,3.57-3.58A7,7,0,0,1,126.82,48.13Z"/><path class="cls-2" d="M172.45,50.82a9,9,0,1,1,9-9A9,9,0,0,1,172.45,50.82Zm0-16a7,7,0,1,0,7,7A7,7,0,0,0,172.45,34.82Z"/><path class="cls-2" d="M254.73,32.71a9,9,0,1,1-9,9A9,9,0,0,1,254.73,32.71Zm0,16a7,7,0,1,0-7-7A7,7,0,0,0,254.73,48.71Z"/><path class="cls-2" d="M279,50.81a9,9,0,1,0-9-9A9,9,0,0,0,279,50.81Zm2.9-2.64,3.46-3.46A7,7,0,0,1,281.86,48.17Zm4-5-5.48,5.48a7,7,0,0,1-1.38.14,6.93,6.93,0,0,1-2.92-.64l9.27-9.27a6.85,6.85,0,0,1,.51,4.29Zm-.86-5-9.59,9.58a7,7,0,0,1-2.4-2.39l9.59-9.6A7.09,7.09,0,0,1,285,38.23Zm-3.06-2.76-9.29,9.28a6.88,6.88,0,0,1-.65-2.94,6.45,6.45,0,0,1,.13-1.33l5.53-5.54a7.34,7.34,0,0,1,1.34-.13A6.92,6.92,0,0,1,281.9,35.47Zm-5.77-.06L272.55,39A7.1,7.1,0,0,1,276.13,35.41Z"/><path class="cls-3" d="M230.5,32.71a9,9,0,1,1-9,9A9,9,0,0,1,230.5,32.71Zm0,16a7,7,0,1,0-7-7A7,7,0,0,0,230.5,48.71Z"/></g></g></svg>