<svg xmlns="http://www.w3.org/2000/svg" viewBox="0 0 405.18 83.47"><defs><style>.cls-1{fill:#fff;}.cls-2{fill:#93dbd4;}</style></defs><title>7</title><g id="Layer_2" data-name="Layer 2"><g id="Layer_2-2" data-name="Layer 2"><path class="cls-1" d="M354.68,35.75a6.38,6.38,0,0,1,1.07-3.38,8.33,8.33,0,0,1,3.13-2.84,9.84,9.84,0,0,1,4.8-1.12,10.2,10.2,0,0,1,4.5.94,7.22,7.22,0,0,1,3,2.55,6.28,6.28,0,0,1,1.07,3.52,5.37,5.37,0,0,1-.61,2.62A7.71,7.71,0,0,1,370.21,40c-.56.55-1.56,1.46-3,2.75a10.5,10.5,0,0,0-.95,1,4.19,4.19,0,0,0-.54.76,3,3,0,0,0-.27.68c-.07.23-.16.63-.29,1.21a2,2,0,0,1-2.1,1.82,2.15,2.15,0,0,1-1.53-.59,2.34,2.34,0,0,1-.63-1.78,6.65,6.65,0,0,1,.46-2.56,6.55,6.55,0,0,1,1.21-1.9c.51-.54,1.19-1.19,2-1.94s1.29-1.15,1.63-1.48a5.38,5.38,0,0,0,.84-1.12,2.7,2.7,0,0,0,.34-1.34,3.1,3.1,0,0,0-1-2.37,3.85,3.85,0,0,0-2.7-1,3.74,3.74,0,0,0-2.85,1A7.76,7.76,0,0,0,359.29,36c-.4,1.33-1.16,2-2.27,2a2.23,2.23,0,0,1-1.66-.69A2.16,2.16,0,0,1,354.68,35.75ZM363.26,55a2.72,2.72,0,0,1-1.87-.7,2.41,2.41,0,0,1-.8-1.94,2.47,2.47,0,0,1,.77-1.86,2.6,2.6,0,0,1,1.9-.76,2.67,2.67,0,0,1,1.83,4.56A2.72,2.72,0,0,1,363.26,55Z"/><path class="cls-1" d="M81.92,83.47H1.5A1.5,1.5,0,0,1,0,82V1.55A1.5,1.5,0,0,1,1.5.05H81.92a1.5,1.5,0,0,1,1.5,1.5V82A1.5,1.5,0,0,1,81.92,83.47ZM3,80.47H80.42V3.05H3Z"/><path class="cls-1" d="M188.43,83.47H108a1.5,1.5,0,0,1-1.5-1.5V1.55A1.5,1.5,0,0,1,108,.05h80.42a1.5,1.5,0,0,1,1.5,1.5V82A1.5,1.5,0,0,1,188.43,83.47Zm-78.92-3h77.42V3.05H109.51Z"/><path class="cls-1" d="M294.94,83.47H214.52A1.5,1.5,0,0,1,213,82V1.55a1.5,1.5,0,0,1,1.5-1.5h80.42a1.5,1.5,0,0,1,1.5,1.5V82A1.5,1.5,0,0,1,294.94,83.47Zm-78.92-3h77.42V3.05H216Z"/><path class="cls-1" d="M403.68,83.42h-6a1.5,1.5,0,0,1,0-3h4.5v-4.5a1.5,1.5,0,0,1,3,0v6A1.5,1.5,0,0,1,403.68,83.42Z"/><path class="cls-1" d="M388.68,83.42H377.87a1.5,1.5,0,0,1,0-3h10.81a1.5,1.5,0,0,1,0,3Zm-19.81,0h-10.8a1.5,1.5,0,0,1,0-3h10.8a1.5,1.5,0,0,1,0,3Zm-19.81,0h-10.8a1.5,1.5,0,0,1,0-3h10.8a1.5,1.5,0,0,1,0,3Z"/><path class="cls-1" d="M329.26,83.42h-6a1.5,1.5,0,0,1-1.5-1.5v-6a1.5,1.5,0,0,1,3,0v4.5h4.5a1.5,1.5,0,0,1,0,3Z"/><path class="cls-1" d="M323.26,68.42a1.5,1.5,0,0,1-1.5-1.5V56.12a1.5,1.5,0,0,1,3,0v10.8A1.5,1.5,0,0,1,323.26,68.42Zm0-19.81a1.5,1.5,0,0,1-1.5-1.5V36.31a1.5,1.5,0,0,1,3,0v10.8A1.5,1.5,0,0,1,323.26,48.61Zm0-19.8a1.5,1.5,0,0,1-1.5-1.5V16.5a1.5,1.5,0,0,1,3,0V27.31A1.5,1.5,0,0,1,323.26,28.81Z"/><path class="cls-1" d="M323.26,9a1.5,1.5,0,0,1-1.5-1.5v-6a1.5,1.5,0,0,1,1.5-1.5h6a1.5,1.5,0,0,1,0,3h-4.5V7.5A1.5,1.5,0,0,1,323.26,9Z"/><path class="cls-1" d="M388.68,3H377.87a1.5,1.5,0,0,1,0-3h10.81a1.5,1.5,0,0,1,0,3ZM368.87,3h-10.8a1.5,1.5,0,0,1,0-3h10.8a1.5,1.5,0,0,1,0,3ZM349.06,3h-10.8a1.5,1.5,0,0,1,0-3h10.8a1.5,1.5,0,0,1,0,3Z"/><path class="cls-1" d="M403.68,9a1.5,1.5,0,0,1-1.5-1.5V3h-4.5a1.5,1.5,0,0,1,0-3h6a1.5,1.5,0,0,1,1.5,1.5v6A1.5,1.5,0,0,1,403.68,9Z"/><path class="cls-1" d="M403.68,68.42a1.5,1.5,0,0,1-1.5-1.5V56.12a1.5,1.5,0,0,1,3,0v10.8A1.5,1.5,0,0,1,403.68,68.42Zm0-19.81a1.5,1.5,0,0,1-1.5-1.5V36.31a1.5,1.5,0,0,1,3,0v10.8A1.5,1.5,0,0,1,403.68,48.61Zm0-19.8a1.5,1.5,0,0,1-1.5-1.5V16.5a1.5,1.5,0,0,1,3,0V27.31A1.5,1.5,0,0,1,403.68,28.81Z"/><path class="cls-2" d="M67,65.35l-7.58-5.58a1.5,1.5,0,0,0-1.78,2.42L61.49,65l-44.21.23a1.51,1.51,0,0,0-1.5,1.51,1.5,1.5,0,0,0,1.51,1.49L61.63,68l-3.8,2.77a1.5,1.5,0,0,0-.33,2.1l.15.18a1.52,1.52,0,0,0,2,.15L67,67.77a1.51,1.51,0,0,0,.61-1.21A1.48,1.48,0,0,0,67,65.35Z"/><path class="cls-2" d="M179.66,24.11l-5.43-7.43a1.5,1.5,0,0,0-1.2-.61,1.48,1.48,0,0,0-1.21.61l-5.58,7.58A1.5,1.5,0,0,0,168.65,26l2.82-3.82.21,41.4-5.23-3.85a1.5,1.5,0,0,0-1.78,2.42L168.49,65l-44.21.23a1.51,1.51,0,0,0-1.5,1.51,1.5,1.5,0,0,0,1.51,1.49L168.63,68l-3.8,2.77a1.5,1.5,0,0,0-.33,2.1l.15.18a1.52,1.52,0,0,0,1.95.15L174,67.77a1.5,1.5,0,0,0,.5-.67,1.59,1.59,0,0,0,.17-.68l-.24-44.34,2.78,3.8a1.5,1.5,0,0,0,2.1.33l.17-.15A1.5,1.5,0,0,0,179.66,24.11Z"/><path class="cls-2" d="M285.29,23.82l-5.42-7.42a1.51,1.51,0,0,0-.79-.55,1.49,1.49,0,0,0-.86-.27l-44.33.23,3.8-2.77a1.5,1.5,0,0,0,.32-2.1.8.8,0,0,0-.15-.17,1.49,1.49,0,0,0-1.94-.15l-7.43,5.43a1.51,1.51,0,0,0-.62,1.2,1.49,1.49,0,0,0,.62,1.21L236.06,24a1.5,1.5,0,1,0,1.78-2.41L234,18.81l41.8-.21L271.87,24a1.5,1.5,0,0,0,2.42,1.78l2.81-3.82.21,41.4-5.23-3.85a1.5,1.5,0,0,0-1.77,2.42l3.82,2.81-44.22.23a1.5,1.5,0,0,0,0,3l44.34-.23-3.8,2.77a1.51,1.51,0,0,0-.33,2.1l.16.18a1.5,1.5,0,0,0,1.94.15l7.43-5.43a1.5,1.5,0,0,0,.5-.67,1.43,1.43,0,0,0,.17-.68L280.1,21.8l2.77,3.79a1.5,1.5,0,0,0,2.1.33l.17-.15A1.49,1.49,0,0,0,285.29,23.82Z"/></g></g></svg>